<?xml version="1.0" ?><svg viewBox="0 0 128 128" xmlns="http://www.w3.org/2000/svg"><defs><style>.cls-1{fill:#4d91bb;}.cls-2{fill:#2175aa;}.cls-3{fill:#c3edf5;}.cls-4{fill:#87dbec;}</style></defs><title/><g data-name="33 Service Portfolio" id="_33_Service_Portfolio"><polygon class="cls-1" points="83.5 39.25 74.5 39.25 74.5 30.25 53.5 30.25 53.5 39.25 44.5 39.25 44.5 21.25 83.5 21.25 83.5 39.25"/><polygon class="cls-2" points="44.5 34.75 53.5 35.75 53.5 32.98 44.5 34.75"/><polygon class="cls-2" points="74.5 34.75 83.5 35.75 83.5 32.98 74.5 34.75"/><rect class="cls-3" height="72" width="96" x="16" y="34.75"/><rect class="cls-1" height="72" width="9" x="27.5" y="34.75"/><rect class="cls-1" height="72" width="9" x="91.5" y="34.75"/><polygon class="cls-4" points="100.5 34.75 102.79 106.75 100.5 106.75 100.5 34.75"/><polygon class="cls-4" points="36.5 34.75 38.79 106.75 36.5 106.75 36.5 34.75"/></g></svg>