<svg width="30" height="30" viewBox="0 0 50 50" fill="none" xmlns="http://www.w3.org/2000/svg">
<path d="M49.0002 27.1067C48.5807 31.6459 46.8772 35.9717 44.0889 39.5781C41.3006 43.1845 37.5429 45.9221 33.2554 47.4708C28.968 49.0194 24.3282 49.315 19.8789 48.3229C15.4296 47.3308 11.3549 45.0921 8.13149 41.8687C4.90811 38.6454 2.6694 34.5706 1.67731 30.1213C0.685227 25.672 0.980801 21.0322 2.52945 16.7448C4.0781 12.4574 6.81577 8.69964 10.4221 5.91134C14.0285 3.12304 18.3543 1.41948 22.8936 1C20.236 4.59538 18.9572 9.0252 19.2896 13.4838C19.6221 17.9423 21.5439 22.1335 24.7053 25.2949C27.8667 28.4564 32.0579 30.3781 36.5165 30.7106C40.975 31.0431 45.4048 29.7642 49.0002 27.1067Z" stroke="white" stroke-width="2" stroke-linecap="round" stroke-linejoin="round"/>
</svg>
