<svg width="1509" height="851" viewBox="0 0 1509 851" fill="none" xmlns="http://www.w3.org/2000/svg">
<g clip-path="url(#clip0_29_204)">
<path fill-rule="evenodd" clip-rule="evenodd" d="M1164 0H1315V151H1164V0ZM1264.67 60.4C1253.55 60.4 1244.53 69.414 1244.53 80.5333C1244.53 91.6527 1253.55 100.667 1264.67 100.667H1274.73C1280.29 100.667 1284.8 105.174 1284.8 110.733C1284.8 116.293 1280.29 120.8 1274.73 120.8H1264.67C1259.11 120.8 1254.6 116.293 1254.6 110.733H1244.53C1244.53 121.853 1253.55 130.867 1264.67 130.867H1274.73C1285.85 130.867 1294.87 121.853 1294.87 110.733C1294.87 99.614 1285.85 90.6 1274.73 90.6H1264.67C1259.11 90.6 1254.6 86.0929 1254.6 80.5333C1254.6 74.9737 1259.11 70.4667 1264.67 70.4667H1276.41C1281.04 70.4667 1284.8 74.2225 1284.8 78.8555V80.5333H1294.87V78.8555C1294.87 68.6628 1286.6 60.4 1276.41 60.4H1264.67ZM1194.2 60.4H1244.53V70.4667H1224.4V130.867H1214.33V70.4667H1194.2V60.4Z" fill="#4F4C4C" fill-opacity="0.15"/>
</g>
<g clip-path="url(#clip1_29_204)">
<path fill-rule="evenodd" clip-rule="evenodd" d="M582 458H733V609H582V458ZM682.667 518.4C671.547 518.4 662.533 527.414 662.533 538.533C662.533 549.653 671.547 558.667 682.667 558.667H692.733C698.293 558.667 702.8 563.174 702.8 568.733C702.8 574.293 698.293 578.8 692.733 578.8H682.667C677.107 578.8 672.6 574.293 672.6 568.733H662.533C662.533 579.853 671.547 588.867 682.667 588.867H692.733C703.853 588.867 712.867 579.853 712.867 568.733C712.867 557.614 703.853 548.6 692.733 548.6H682.667C677.107 548.6 672.6 544.093 672.6 538.533C672.6 532.974 677.107 528.467 682.667 528.467H694.411C699.044 528.467 702.8 532.223 702.8 536.856V538.533H712.867V536.856C712.867 526.663 704.604 518.4 694.411 518.4H682.667ZM612.2 518.4H662.533V528.467H642.4V588.867H632.333V528.467H612.2V518.4Z" fill="#4F4C4C" fill-opacity="0.15"/>
</g>
<g clip-path="url(#clip2_29_204)">
<path d="M1395.75 42.4688H1376.88C1374.37 42.4688 1371.97 43.4631 1370.2 45.2329C1368.43 47.0028 1367.44 49.4033 1367.44 51.9062V108.531H1376.88V84.9375H1395.75V108.531H1405.19V51.9062C1405.19 49.4033 1404.19 47.0028 1402.42 45.2329C1400.65 43.4631 1398.25 42.4688 1395.75 42.4688ZM1376.88 75.5V51.9062H1395.75V75.5H1376.88Z" fill="#4F4C4C" fill-opacity="0.15"/>
<path d="M1461.81 51.9062H1475.97V99.0938H1461.81V108.531H1499.56V99.0938H1485.41V51.9062H1499.56V42.4688H1461.81V51.9062Z" fill="#4F4C4C" fill-opacity="0.15"/>
<path d="M1424.06 108.531H1414.62V42.4688H1442.94C1445.44 42.4688 1447.84 43.4631 1449.61 45.2329C1451.38 47.0028 1452.38 49.4033 1452.38 51.9062V75.5C1452.38 78.003 1451.38 80.4034 1449.61 82.1733C1447.84 83.9432 1445.44 84.9375 1442.94 84.9375H1424.06V108.531ZM1424.06 75.5H1442.94V51.9062H1424.06V75.5Z" fill="#4F4C4C" fill-opacity="0.15"/>
</g>
<g clip-path="url(#clip3_29_204)">
<path d="M1395.75 500.469H1376.88C1374.37 500.469 1371.97 501.463 1370.2 503.233C1368.43 505.003 1367.44 507.403 1367.44 509.906V566.531H1376.88V542.938H1395.75V566.531H1405.19V509.906C1405.19 507.403 1404.19 505.003 1402.42 503.233C1400.65 501.463 1398.25 500.469 1395.75 500.469ZM1376.88 533.5V509.906H1395.75V533.5H1376.88Z" fill="#4F4C4C" fill-opacity="0.15"/>
<path d="M1461.81 509.906H1475.97V557.094H1461.81V566.531H1499.56V557.094H1485.41V509.906H1499.56V500.469H1461.81V509.906Z" fill="#4F4C4C" fill-opacity="0.15"/>
<path d="M1424.06 566.531H1414.62V500.469H1442.94C1445.44 500.469 1447.84 501.463 1449.61 503.233C1451.38 505.003 1452.38 507.403 1452.38 509.906V533.5C1452.38 536.003 1451.38 538.403 1449.61 540.173C1447.84 541.943 1445.44 542.938 1442.94 542.938H1424.06V566.531ZM1424.06 533.5H1442.94V509.906H1424.06V533.5Z" fill="#4F4C4C" fill-opacity="0.15"/>
</g>
<g clip-path="url(#clip4_29_204)">
<path d="M1201.75 742.469H1182.88C1180.37 742.469 1177.97 743.463 1176.2 745.233C1174.43 747.003 1173.44 749.403 1173.44 751.906V808.531H1182.88V784.938H1201.75V808.531H1211.19V751.906C1211.19 749.403 1210.19 747.003 1208.42 745.233C1206.65 743.463 1204.25 742.469 1201.75 742.469ZM1182.88 775.5V751.906H1201.75V775.5H1182.88Z" fill="#4F4C4C" fill-opacity="0.15"/>
<path d="M1267.81 751.906H1281.97V799.094H1267.81V808.531H1305.56V799.094H1291.41V751.906H1305.56V742.469H1267.81V751.906Z" fill="#4F4C4C" fill-opacity="0.15"/>
<path d="M1230.06 808.531H1220.62V742.469H1248.94C1251.44 742.469 1253.84 743.463 1255.61 745.233C1257.38 747.003 1258.38 749.403 1258.38 751.906V775.5C1258.38 778.003 1257.38 780.403 1255.61 782.173C1253.84 783.943 1251.44 784.938 1248.94 784.938H1230.06V808.531ZM1230.06 775.5H1248.94V751.906H1230.06V775.5Z" fill="#4F4C4C" fill-opacity="0.15"/>
</g>
<g clip-path="url(#clip5_29_204)">
<path d="M1201.75 284.469H1182.88C1180.37 284.469 1177.97 285.463 1176.2 287.233C1174.43 289.003 1173.44 291.403 1173.44 293.906V350.531H1182.88V326.938H1201.75V350.531H1211.19V293.906C1211.19 291.403 1210.19 289.003 1208.42 287.233C1206.65 285.463 1204.25 284.469 1201.75 284.469ZM1182.88 317.5V293.906H1201.75V317.5H1182.88Z" fill="#4F4C4C" fill-opacity="0.15"/>
<path d="M1267.81 293.906H1281.97V341.094H1267.81V350.531H1305.56V341.094H1291.41V293.906H1305.56V284.469H1267.81V293.906Z" fill="#4F4C4C" fill-opacity="0.15"/>
<path d="M1230.06 350.531H1220.62V284.469H1248.94C1251.44 284.469 1253.84 285.463 1255.61 287.233C1257.38 289.003 1258.38 291.403 1258.38 293.906V317.5C1258.38 320.003 1257.38 322.403 1255.61 324.173C1253.84 325.943 1251.44 326.938 1248.94 326.938H1230.06V350.531ZM1230.06 317.5H1248.94V293.906H1230.06V317.5Z" fill="#4F4C4C" fill-opacity="0.15"/>
</g>
<g clip-path="url(#clip6_29_204)">
<path d="M102.013 271.544L101.541 274.004C100.811 278.666 101.076 280 103.076 281.73L105.008 283.329L103.007 292.25C101.812 297.573 100.346 302.034 99.4146 303.5C98.6156 304.764 97.6844 306.627 97.4831 307.627C97.1496 308.822 96.0171 310.024 94.2869 311.087C92.758 311.956 89.7569 314.284 87.6303 316.152C85.9316 317.681 84.7613 318.618 84.1259 319.021L82.0496 320.663C81.3827 321.733 81.0052 322.595 80.8605 323.249C80.7158 323.922 80.7976 324.369 81.0115 324.696C81.2191 325.011 81.5777 325.231 82.0685 325.369C82.6494 325.506 83.2474 325.554 83.8428 325.514C85.1896 325.422 86.5227 325.186 87.8191 324.81C88.2595 324.69 88.6055 324.577 88.9075 324.476C89.3731 323.904 90.449 322.821 92.3554 320.94C97.4139 315.951 99.3454 313.22 97.351 313.956C96.6148 314.221 96.9483 313.554 98.2129 312.22C100.881 309.621 102.409 305.695 105.606 293.383C108.135 283.662 108.135 283.524 109.997 283.524C110.872 283.524 113.344 283.675 113.344 283.675V271.544H107.669H102.013ZM126.167 291.457C125.764 291.457 125.097 292.061 124.701 292.728C123.971 293.924 124.833 294.654 135.818 301.511C142.343 305.645 147.602 309.168 147.47 309.439C147.338 309.634 142.009 313.101 135.623 317.096C124.034 324.281 123.971 324.35 125.034 325.816C126.368 327.546 125.034 328.144 140.078 318.757L151 311.767V306.507L138.813 298.982C132.226 294.855 126.5 291.527 126.167 291.457ZM24.9653 292.193C24.6319 292.193 18.9065 295.591 12.3191 299.649L0 307.174V312.434L12.2499 320.091C19.0449 324.281 24.7703 327.748 25.0345 327.748C25.2988 327.748 25.8336 327.144 26.3684 326.414C27.1674 325.149 26.4942 324.614 15.2447 317.492C4.53 310.766 3.3975 309.835 4.46708 309.106C5.134 308.64 10.1925 305.507 15.6537 302.115C28.1049 294.459 27.438 294.987 26.4376 293.389C26.0412 292.728 25.368 292.131 24.9716 292.193H24.9653ZM79.6022 292.338C77.765 292.326 73.8138 295.125 61.9855 304.783C61.4759 305.997 61.4318 306.834 61.6646 307.375C61.8156 307.747 62.0925 308.004 62.4762 308.193C62.8538 308.382 63.3445 308.495 63.8856 308.539C64.9615 308.634 66.2324 308.464 67.2579 308.262L67.95 308.105C68.1869 307.787 68.4979 307.533 68.856 307.363C69.5858 306.96 72.6499 304.167 75.7139 301.172C81.1059 295.711 82.3705 293.244 80.1747 292.445C79.9946 292.373 79.796 292.337 79.6022 292.338ZM93.4187 296.132C91.8017 296.176 88.8887 298.051 83.8994 302.034C81.3953 304.066 79.8098 305.161 78.9604 305.387L75.6636 307.992C74.4241 310.257 74.2417 311.66 74.5688 312.434C74.6507 312.625 74.7696 312.797 74.9186 312.942C75.0676 313.087 75.2439 313.201 75.4371 313.277C75.9178 313.467 76.4303 313.563 76.9471 313.56C78.182 313.547 79.4095 313.367 80.5963 313.025C81.2147 312.859 81.8256 312.666 82.4271 312.446L82.6096 312.371L82.943 312.195C83.5722 311.383 85.0193 309.854 86.8313 308.093C92.5567 302.568 95.4823 298.642 94.8846 297.177C94.6141 296.466 94.1485 296.107 93.4187 296.132ZM78.1677 302.927C77.7021 302.977 76.6577 303.783 74.7765 305.431C72.0585 307.835 69.0951 309.219 68.0695 308.602C67.8312 308.656 67.5921 308.706 67.3523 308.753C66.3079 308.961 65.0055 309.131 63.8415 309.036C63.2931 309.003 62.7556 308.869 62.256 308.64C61.7849 308.424 61.4089 308.044 61.199 307.57C60.9663 307.004 60.9663 306.299 61.2305 305.4L57.1409 308.759L47.8859 316.416V328.83L78.2117 304.94C78.2058 304.679 78.2398 304.418 78.3124 304.167C78.5452 303.323 78.5326 302.896 78.1677 302.933V302.927ZM91.2166 306.947C90.7573 306.947 89.9897 307.596 88.7628 308.898C87.0955 310.678 84.4719 312.402 83.0815 312.755L82.8675 312.868C82.6393 312.962 82.4085 313.05 82.1755 313.132C81.798 313.258 81.3072 313.409 80.741 313.56C79.6085 313.868 78.1991 314.151 76.9408 314.12C76.3476 314.119 75.7601 314.004 75.2106 313.78C74.6927 313.567 74.2777 313.161 74.0529 312.648C73.688 311.773 73.8327 310.546 74.6318 308.804L47.8796 329.874V337.456H59.6324L84.56 317.876C85.208 317.159 86.1832 316.177 87.4982 314.95C91.0215 311.685 91.8206 310.559 91.8206 308.892C91.8206 307.596 91.6759 306.941 91.2166 306.941V306.947ZM97.1496 319.216L95.0167 321.343C93.8213 322.475 91.6885 323.872 90.2288 324.47L89.9394 324.596L89.9205 324.627L89.8576 324.69C89.801 324.734 89.7758 324.74 89.7318 324.759C89.149 324.98 88.5571 325.175 87.9575 325.344C86.6244 325.732 85.2532 325.975 83.8679 326.068C83.2129 326.11 82.5554 326.053 81.9175 325.898C81.3639 325.776 80.8752 325.453 80.5459 324.992C80.2439 324.526 80.1558 323.904 80.3257 323.136C80.4608 322.589 80.6615 322.061 80.9234 321.563L60.809 337.456H87.5611L90.7573 333.794C95.1489 328.673 97.1496 325.011 97.1496 321.878V319.216Z" fill="#4F4C4C" fill-opacity="0.15"/>
</g>
<g clip-path="url(#clip7_29_204)">
<path d="M296.013 729.544L295.541 732.004C294.811 736.666 295.076 738 297.076 739.73L299.008 741.329L297.007 750.25C295.812 755.573 294.346 760.034 293.415 761.5C292.616 762.764 291.684 764.627 291.483 765.627C291.15 766.822 290.017 768.024 288.287 769.087C286.758 769.956 283.757 772.284 281.63 774.152C279.932 775.681 278.761 776.618 278.126 777.021L276.05 778.663C275.383 779.733 275.005 780.595 274.86 781.249C274.716 781.922 274.798 782.369 275.011 782.696C275.219 783.011 275.578 783.231 276.068 783.369C276.649 783.506 277.247 783.554 277.843 783.514C279.19 783.422 280.523 783.186 281.819 782.81C282.259 782.69 282.606 782.577 282.908 782.476C283.373 781.904 284.449 780.821 286.355 778.94C291.414 773.951 293.345 771.22 291.351 771.956C290.615 772.221 290.948 771.554 292.213 770.22C294.881 767.621 296.409 763.695 299.606 751.383C302.135 741.662 302.135 741.524 303.997 741.524C304.872 741.524 307.344 741.675 307.344 741.675V729.544H301.669H296.013ZM320.167 749.457C319.764 749.457 319.097 750.061 318.701 750.728C317.971 751.924 318.833 752.654 329.818 759.511C336.343 763.645 341.602 767.168 341.47 767.439C341.338 767.634 336.009 771.101 329.623 775.096C318.034 782.281 317.971 782.35 319.034 783.816C320.368 785.546 319.034 786.144 334.078 776.757L345 769.767V764.507L332.813 756.982C326.226 752.855 320.5 749.527 320.167 749.457ZM218.965 750.193C218.632 750.193 212.906 753.591 206.319 757.649L194 765.174V770.434L206.25 778.091C213.045 782.281 218.77 785.748 219.035 785.748C219.299 785.748 219.834 785.144 220.368 784.414C221.167 783.149 220.494 782.614 209.245 775.492C198.53 768.766 197.397 767.835 198.467 767.106C199.134 766.64 204.192 763.507 209.654 760.115C222.105 752.459 221.438 752.987 220.438 751.389C220.041 750.728 219.368 750.131 218.972 750.193H218.965ZM273.602 750.338C271.765 750.326 267.814 753.125 255.986 762.783C255.476 763.997 255.432 764.834 255.665 765.375C255.816 765.747 256.092 766.004 256.476 766.193C256.854 766.382 257.345 766.495 257.886 766.539C258.961 766.634 260.232 766.464 261.258 766.262L261.95 766.105C262.187 765.787 262.498 765.533 262.856 765.363C263.586 764.96 266.65 762.167 269.714 759.172C275.106 753.711 276.37 751.244 274.175 750.445C273.995 750.373 273.796 750.337 273.602 750.338ZM287.419 754.132C285.802 754.176 282.889 756.051 277.899 760.034C275.395 762.066 273.81 763.161 272.96 763.387L269.664 765.992C268.424 768.257 268.242 769.66 268.569 770.434C268.651 770.625 268.77 770.797 268.919 770.942C269.068 771.087 269.244 771.201 269.437 771.277C269.918 771.467 270.43 771.563 270.947 771.56C272.182 771.547 273.409 771.367 274.596 771.025C275.215 770.859 275.826 770.666 276.427 770.446L276.61 770.371L276.943 770.195C277.572 769.383 279.019 767.854 280.831 766.093C286.557 760.568 289.482 756.642 288.885 755.177C288.614 754.466 288.148 754.107 287.419 754.132ZM272.168 760.927C271.702 760.977 270.658 761.783 268.776 763.431C266.058 765.835 263.095 767.219 262.07 766.602C261.831 766.656 261.592 766.706 261.352 766.753C260.308 766.961 259.006 767.131 257.842 767.036C257.293 767.003 256.756 766.869 256.256 766.64C255.785 766.424 255.409 766.044 255.199 765.57C254.966 765.004 254.966 764.299 255.23 763.4L251.141 766.759L241.886 774.416V786.83L272.212 762.94C272.206 762.679 272.24 762.418 272.312 762.167C272.545 761.323 272.533 760.896 272.168 760.933V760.927ZM285.217 764.947C284.757 764.947 283.99 765.596 282.763 766.898C281.096 768.678 278.472 770.402 277.081 770.755L276.868 770.868C276.639 770.962 276.408 771.05 276.175 771.132C275.798 771.258 275.307 771.409 274.741 771.56C273.608 771.868 272.199 772.151 270.941 772.12C270.348 772.119 269.76 772.004 269.211 771.78C268.693 771.567 268.278 771.161 268.053 770.648C267.688 769.773 267.833 768.546 268.632 766.804L241.88 787.874V795.456H253.632L278.56 775.876C279.208 775.159 280.183 774.177 281.498 772.95C285.022 769.685 285.821 768.559 285.821 766.892C285.821 765.596 285.676 764.941 285.217 764.941V764.947ZM291.15 777.216L289.017 779.343C287.821 780.475 285.688 781.872 284.229 782.47L283.939 782.596L283.92 782.627L283.858 782.69C283.801 782.734 283.776 782.74 283.732 782.759C283.149 782.98 282.557 783.175 281.957 783.344C280.624 783.732 279.253 783.975 277.868 784.068C277.213 784.11 276.555 784.053 275.918 783.898C275.364 783.776 274.875 783.453 274.546 782.992C274.244 782.526 274.156 781.904 274.326 781.136C274.461 780.589 274.662 780.061 274.923 779.563L254.809 795.456H281.561L284.757 791.794C289.149 786.673 291.15 783.011 291.15 779.878V777.216Z" fill="#4F4C4C" fill-opacity="0.15"/>
</g>
<g clip-path="url(#clip8_29_204)">
<path d="M1072.01 526.544L1071.54 529.004C1070.81 533.666 1071.08 535 1073.08 536.73L1075.01 538.329L1073.01 547.25C1071.81 552.573 1070.35 557.034 1069.41 558.5C1068.62 559.764 1067.68 561.627 1067.48 562.627C1067.15 563.822 1066.02 565.024 1064.29 566.087C1062.76 566.956 1059.76 569.284 1057.63 571.152C1055.93 572.681 1054.76 573.618 1054.13 574.021L1052.05 575.663C1051.38 576.733 1051.01 577.595 1050.86 578.249C1050.72 578.922 1050.8 579.369 1051.01 579.696C1051.22 580.011 1051.58 580.231 1052.07 580.369C1052.65 580.506 1053.25 580.554 1053.84 580.514C1055.19 580.422 1056.52 580.186 1057.82 579.81C1058.26 579.69 1058.61 579.577 1058.91 579.476C1059.37 578.904 1060.45 577.821 1062.36 575.94C1067.41 570.951 1069.35 568.22 1067.35 568.956C1066.61 569.221 1066.95 568.554 1068.21 567.22C1070.88 564.621 1072.41 560.695 1075.61 548.383C1078.13 538.662 1078.13 538.524 1080 538.524C1080.87 538.524 1083.34 538.675 1083.34 538.675V526.544H1077.67H1072.01ZM1096.17 546.457C1095.76 546.457 1095.1 547.061 1094.7 547.728C1093.97 548.924 1094.83 549.654 1105.82 556.511C1112.34 560.645 1117.6 564.168 1117.47 564.439C1117.34 564.634 1112.01 568.101 1105.62 572.096C1094.03 579.281 1093.97 579.35 1095.03 580.816C1096.37 582.546 1095.03 583.144 1110.08 573.757L1121 566.767V561.507L1108.81 553.982C1102.23 549.855 1096.5 546.527 1096.17 546.457ZM994.965 547.193C994.632 547.193 988.906 550.591 982.319 554.649L970 562.174V567.434L982.25 575.091C989.045 579.281 994.77 582.748 995.035 582.748C995.299 582.748 995.834 582.144 996.368 581.414C997.167 580.149 996.494 579.614 985.245 572.492C974.53 565.766 973.397 564.835 974.467 564.106C975.134 563.64 980.192 560.507 985.654 557.115C998.105 549.459 997.438 549.987 996.438 548.389C996.041 547.728 995.368 547.131 994.972 547.193H994.965ZM1049.6 547.338C1047.76 547.326 1043.81 550.125 1031.99 559.783C1031.48 560.997 1031.43 561.834 1031.66 562.375C1031.82 562.747 1032.09 563.004 1032.48 563.193C1032.85 563.382 1033.34 563.495 1033.89 563.539C1034.96 563.634 1036.23 563.464 1037.26 563.262L1037.95 563.105C1038.19 562.787 1038.5 562.533 1038.86 562.363C1039.59 561.96 1042.65 559.167 1045.71 556.172C1051.11 550.711 1052.37 548.244 1050.17 547.445C1049.99 547.373 1049.8 547.337 1049.6 547.338ZM1063.42 551.132C1061.8 551.176 1058.89 553.051 1053.9 557.034C1051.4 559.066 1049.81 560.161 1048.96 560.387L1045.66 562.992C1044.42 565.257 1044.24 566.66 1044.57 567.434C1044.65 567.625 1044.77 567.797 1044.92 567.942C1045.07 568.087 1045.24 568.201 1045.44 568.277C1045.92 568.467 1046.43 568.563 1046.95 568.56C1048.18 568.547 1049.41 568.367 1050.6 568.025C1051.21 567.859 1051.83 567.666 1052.43 567.446L1052.61 567.371L1052.94 567.195C1053.57 566.383 1055.02 564.854 1056.83 563.093C1062.56 557.568 1065.48 553.642 1064.88 552.177C1064.61 551.466 1064.15 551.107 1063.42 551.132ZM1048.17 557.927C1047.7 557.977 1046.66 558.783 1044.78 560.431C1042.06 562.835 1039.1 564.219 1038.07 563.602C1037.83 563.656 1037.59 563.706 1037.35 563.753C1036.31 563.961 1035.01 564.131 1033.84 564.036C1033.29 564.003 1032.76 563.869 1032.26 563.64C1031.78 563.424 1031.41 563.044 1031.2 562.57C1030.97 562.004 1030.97 561.299 1031.23 560.4L1027.14 563.759L1017.89 571.416V583.83L1048.21 559.94C1048.21 559.679 1048.24 559.418 1048.31 559.167C1048.55 558.323 1048.53 557.896 1048.17 557.933V557.927ZM1061.22 561.947C1060.76 561.947 1059.99 562.596 1058.76 563.898C1057.1 565.678 1054.47 567.402 1053.08 567.755L1052.87 567.868C1052.64 567.962 1052.41 568.05 1052.18 568.132C1051.8 568.258 1051.31 568.409 1050.74 568.56C1049.61 568.868 1048.2 569.151 1046.94 569.12C1046.35 569.119 1045.76 569.004 1045.21 568.78C1044.69 568.567 1044.28 568.161 1044.05 567.648C1043.69 566.773 1043.83 565.546 1044.63 563.804L1017.88 584.874V592.456H1029.63L1054.56 572.876C1055.21 572.159 1056.18 571.177 1057.5 569.95C1061.02 566.685 1061.82 565.559 1061.82 563.892C1061.82 562.596 1061.68 561.941 1061.22 561.941V561.947ZM1067.15 574.216L1065.02 576.343C1063.82 577.475 1061.69 578.872 1060.23 579.47L1059.94 579.596L1059.92 579.627L1059.86 579.69C1059.8 579.734 1059.78 579.74 1059.73 579.759C1059.15 579.98 1058.56 580.175 1057.96 580.344C1056.62 580.732 1055.25 580.975 1053.87 581.068C1053.21 581.11 1052.56 581.053 1051.92 580.898C1051.36 580.776 1050.88 580.453 1050.55 579.992C1050.24 579.526 1050.16 578.904 1050.33 578.136C1050.46 577.589 1050.66 577.061 1050.92 576.563L1030.81 592.456H1057.56L1060.76 588.794C1065.15 583.673 1067.15 580.011 1067.15 576.878V574.216Z" fill="#4F4C4C" fill-opacity="0.15"/>
</g>
<g clip-path="url(#clip9_29_204)">
<path d="M878.013 284.544L877.541 287.004C876.811 291.666 877.076 293 879.076 294.73L881.008 296.329L879.007 305.25C877.812 310.573 876.346 315.034 875.415 316.5C874.616 317.764 873.684 319.627 873.483 320.627C873.15 321.822 872.017 323.024 870.287 324.087C868.758 324.956 865.757 327.284 863.63 329.152C861.932 330.681 860.761 331.618 860.126 332.021L858.05 333.663C857.383 334.733 857.005 335.595 856.86 336.249C856.716 336.922 856.798 337.369 857.011 337.696C857.219 338.011 857.578 338.231 858.068 338.369C858.649 338.506 859.247 338.554 859.843 338.514C861.19 338.422 862.523 338.186 863.819 337.81C864.259 337.69 864.606 337.577 864.908 337.476C865.373 336.904 866.449 335.821 868.355 333.94C873.414 328.951 875.345 326.22 873.351 326.956C872.615 327.221 872.948 326.554 874.213 325.22C876.881 322.621 878.409 318.695 881.606 306.383C884.135 296.662 884.135 296.524 885.997 296.524C886.872 296.524 889.344 296.675 889.344 296.675V284.544H883.669H878.013ZM902.167 304.457C901.764 304.457 901.097 305.061 900.701 305.728C899.971 306.924 900.833 307.654 911.818 314.511C918.343 318.645 923.602 322.168 923.47 322.439C923.338 322.634 918.009 326.101 911.623 330.096C900.034 337.281 899.971 337.35 901.034 338.816C902.368 340.546 901.034 341.144 916.078 331.757L927 324.767V319.507L914.813 311.982C908.226 307.855 902.5 304.527 902.167 304.457ZM800.965 305.193C800.632 305.193 794.906 308.591 788.319 312.649L776 320.174V325.434L788.25 333.091C795.045 337.281 800.77 340.748 801.035 340.748C801.299 340.748 801.834 340.144 802.368 339.414C803.167 338.149 802.494 337.614 791.245 330.492C780.53 323.766 779.397 322.835 780.467 322.106C781.134 321.64 786.192 318.507 791.654 315.115C804.105 307.459 803.438 307.987 802.438 306.389C802.041 305.728 801.368 305.131 800.972 305.193H800.965ZM855.602 305.338C853.765 305.326 849.814 308.125 837.986 317.783C837.476 318.997 837.432 319.834 837.665 320.375C837.816 320.747 838.092 321.004 838.476 321.193C838.854 321.382 839.345 321.495 839.886 321.539C840.961 321.634 842.232 321.464 843.258 321.262L843.95 321.105C844.187 320.787 844.498 320.533 844.856 320.363C845.586 319.96 848.65 317.167 851.714 314.172C857.106 308.711 858.37 306.244 856.175 305.445C855.995 305.373 855.796 305.337 855.602 305.338ZM869.419 309.132C867.802 309.176 864.889 311.051 859.899 315.034C857.395 317.066 855.81 318.161 854.96 318.387L851.664 320.992C850.424 323.257 850.242 324.66 850.569 325.434C850.651 325.625 850.77 325.797 850.919 325.942C851.068 326.087 851.244 326.201 851.437 326.277C851.918 326.467 852.43 326.563 852.947 326.56C854.182 326.547 855.409 326.367 856.596 326.025C857.215 325.859 857.826 325.666 858.427 325.446L858.61 325.371L858.943 325.195C859.572 324.383 861.019 322.854 862.831 321.093C868.557 315.568 871.482 311.642 870.885 310.177C870.614 309.466 870.148 309.107 869.419 309.132ZM854.168 315.927C853.702 315.977 852.658 316.783 850.776 318.431C848.058 320.835 845.095 322.219 844.07 321.602C843.831 321.656 843.592 321.706 843.352 321.753C842.308 321.961 841.006 322.131 839.842 322.036C839.293 322.003 838.756 321.869 838.256 321.64C837.785 321.424 837.409 321.044 837.199 320.57C836.966 320.004 836.966 319.299 837.23 318.4L833.141 321.759L823.886 329.416V341.83L854.212 317.94C854.206 317.679 854.24 317.418 854.312 317.167C854.545 316.323 854.533 315.896 854.168 315.933V315.927ZM867.217 319.947C866.757 319.947 865.99 320.596 864.763 321.898C863.096 323.678 860.472 325.402 859.081 325.755L858.868 325.868C858.639 325.962 858.408 326.05 858.175 326.132C857.798 326.258 857.307 326.409 856.741 326.56C855.608 326.868 854.199 327.151 852.941 327.12C852.348 327.119 851.76 327.004 851.211 326.78C850.693 326.567 850.278 326.161 850.053 325.648C849.688 324.773 849.833 323.546 850.632 321.804L823.88 342.874V350.456H835.632L860.56 330.876C861.208 330.159 862.183 329.177 863.498 327.95C867.022 324.685 867.821 323.559 867.821 321.892C867.821 320.596 867.676 319.941 867.217 319.941V319.947ZM873.15 332.216L871.017 334.343C869.821 335.475 867.688 336.872 866.229 337.47L865.939 337.596L865.92 337.627L865.858 337.69C865.801 337.734 865.776 337.74 865.732 337.759C865.149 337.98 864.557 338.175 863.957 338.344C862.624 338.732 861.253 338.975 859.868 339.068C859.213 339.11 858.555 339.053 857.918 338.898C857.364 338.776 856.875 338.453 856.546 337.992C856.244 337.526 856.156 336.904 856.326 336.136C856.461 335.589 856.662 335.061 856.923 334.563L836.809 350.456H863.561L866.757 346.794C871.149 341.673 873.15 338.011 873.15 334.878V332.216Z" fill="#4F4C4C" fill-opacity="0.15"/>
</g>
<path d="M1041.22 111.752C1041.07 112.07 1041.14 111.929 1041.22 111.752V111.752ZM1099.99 86.0936C1095.25 86.0917 1090.57 87.4539 1086.31 90.075C1084.92 86.5655 1083.48 83.4983 1083.24 81.1979C1082.96 78.5141 1082.65 76.9215 1082.98 73.7364C1083.31 70.5512 1084.8 66.0389 1084.78 65.7145C1084.75 65.3901 1084.45 63.768 1081.4 63.7385C1078.36 63.709 1075.74 64.4758 1075.44 65.4786C1074.9 67.3111 1074.48 69.1948 1074.19 71.1116C1073.64 74.5621 1068.1 86.8899 1064.96 93.3192C1063.92 90.8123 1063.05 88.6004 1062.86 86.8309C1062.58 84.1471 1062.27 82.5545 1062.6 79.3694C1062.93 76.1842 1064.42 71.6719 1064.4 71.3475C1064.37 71.0231 1064.07 69.401 1061.02 69.3715C1057.98 69.342 1055.36 70.1088 1055.06 71.1116C1054.75 72.1143 1054.42 74.4737 1053.81 76.7446C1053.19 79.0155 1045.81 99.542 1043.88 104.88C1042.89 107.593 1042.04 109.776 1041.42 111.25C1041.33 111.486 1041.26 111.634 1041.21 111.752C1041.28 111.604 1041.33 111.457 1041.33 111.516C1040.81 112.784 1040.5 113.492 1040.5 113.492V113.521C1040.1 114.465 1039.65 115.32 1039.44 115.32C1039.3 115.32 1038.99 112.843 1039.51 109.451C1040.62 102.314 1043.24 91.2252 1043.22 90.8418C1043.19 90.6354 1043.71 88.7184 1041.49 87.6862C1039.35 86.7129 1038.57 88.335 1038.38 88.335C1038.19 88.335 1038.05 88.9248 1038.05 88.9248C1038.05 88.9248 1040.43 76.4202 1033.47 76.4202C1029.13 76.4202 1023.09 82.3776 1020.12 87.7747C1018.26 89.0428 1014.23 91.7856 1009.98 94.7053C1008.35 95.826 1006.68 96.9762 1005.1 98.0674C1004.98 97.92 1004.88 97.7725 1004.77 97.625C996.321 86.359 980.73 78.3961 981.391 63.2666C981.627 57.7516 983.161 43.2709 1011.37 25.6936C1034.49 11.3014 1052.98 15.2534 1056.16 24.042C1060.74 36.5762 1046.28 59.9045 1022.27 63.2666C1013.12 64.5348 1008.3 60.111 1007.1 58.4594C1005.85 56.7194 1005.66 56.6309 1005.19 56.9553C1004.41 57.4862 1004.91 59.0198 1005.19 59.934C1005.9 62.2639 1008.85 66.3928 1013.87 68.4573C1018.28 70.2563 1029.01 71.259 1041.99 64.9772C1056.56 57.958 1067.91 38.4047 1064.58 22.0366C1061.19 5.40297 1039.13 -0.0530863 1018.27 9.20746C1005.83 14.7225 992.39 23.3932 982.719 34.6887C971.232 48.1371 969.394 59.8455 970.149 64.7413C972.836 82.1122 991.989 93.4371 999.655 101.813C999.278 102.078 998.924 102.314 998.593 102.55C994.75 104.939 980.148 114.495 976.493 124.581C972.364 136.024 977.177 144.223 980.336 145.343C990.196 148.764 1000.29 142.601 1005.72 132.485C1011.14 122.369 1010.48 109.156 1007.98 103.14C1007.96 103.052 1007.91 102.993 1007.89 102.904C1008.88 102.167 1009.89 101.43 1010.91 100.692C1012.86 99.2471 1014.77 97.92 1016.45 96.7698C1015.51 99.9549 1014.82 103.789 1014.47 109.333C1014.04 115.822 1016.19 124.227 1018.97 127.53C1020.2 128.975 1021.68 129.005 1022.6 129.005C1025.86 129.005 1027.32 125.643 1028.95 121.632C1030.95 116.736 1032.72 111.044 1032.72 111.044C1032.72 111.044 1030.51 126.439 1036.57 126.439C1038.79 126.439 1041 122.87 1042 121.042V121.071C1042 121.071 1042.04 120.953 1042.16 120.717C1042.4 120.275 1042.52 120.01 1042.52 120.01V119.921C1043.41 118.004 1045.37 113.61 1048.32 106.355C1052.14 96.9762 1055.79 85.2678 1055.79 85.2678C1056.15 87.8416 1056.64 90.3835 1057.26 92.8768C1057.92 95.6786 1059.31 98.7457 1060.42 101.724C1059.52 103.258 1058.98 104.143 1058.98 104.143C1058.98 104.165 1058.99 104.186 1059 104.202C1058.29 105.381 1057.49 106.65 1056.67 107.888C1053.65 112.371 1050.06 117.503 1049.59 118.977C1049.02 120.717 1049.16 122.015 1050.25 123.018C1051.05 123.785 1052.47 123.903 1053.95 123.755C1056.66 123.519 1058.58 122.693 1059.5 122.163C1061.19 121.402 1062.8 120.35 1064.26 119.036C1067.21 116.323 1069 112.43 1068.84 107.298C1068.74 104.467 1068.01 101.636 1067.11 98.9817C1067.37 98.5098 1067.66 98.0084 1067.92 97.5071C1072.59 88.9838 1076.2 79.6289 1076.2 79.6289C1076.55 82.2027 1077.04 84.7445 1077.66 87.2379C1078.22 89.6268 1079.33 92.2516 1080.35 94.8174C1075.96 99.2707 1073.25 104.432 1072.3 107.823C1070.56 114.105 1071.93 116.937 1074.5 117.585C1075.65 117.88 1077.3 117.202 1078.53 116.553C1080.35 115.794 1082.07 114.69 1083.63 113.279C1086.57 110.566 1089.43 106.762 1089.24 101.601C1089.17 99.2707 1088.65 96.9408 1087.96 94.6994C1091.67 92.7529 1096.48 91.6912 1102.61 92.576C1115.75 94.493 1118.32 104.756 1117.83 109.033C1117.33 113.309 1114.57 115.698 1113.65 116.406C1112.73 117.113 1112.45 117.379 1112.52 117.91C1112.64 118.677 1113.06 118.647 1113.84 118.47C1114.92 118.234 1120.73 114.99 1120.99 107.057C1121.36 97.0293 1113.65 85.9992 1099.99 86.0877L1099.99 86.0936ZM998.735 128.769C994.396 134.697 988.309 136.938 985.692 135.051C982.885 133.01 983.993 124.286 989.347 117.969C992.603 114.135 996.8 110.596 999.584 108.413C1000.22 107.941 1001.14 107.234 1002.27 106.378C1002.46 106.231 1002.56 106.172 1002.56 106.172C1002.77 105.995 1003.01 105.847 1003.24 105.671C1005.2 114.636 1003.31 122.54 998.735 128.763V128.769ZM1030.44 101.813C1028.93 106.443 1025.74 118.24 1023.81 117.621C1022.16 117.09 1021.14 108.095 1023.48 99.2471C1024.66 94.7938 1027.16 89.4852 1028.64 87.4207C1031.03 84.0881 1033.64 83.0264 1034.26 84.3536C1035.08 86.0936 1031.38 98.9227 1030.44 101.813ZM1056.62 117.444C1055.99 117.857 1055.4 118.122 1055.11 117.916C1054.9 117.768 1055.37 117.208 1055.37 117.208C1055.37 117.208 1058.65 112.814 1059.95 110.808C1060.71 109.628 1061.58 108.242 1062.52 106.709C1062.52 106.856 1062.54 107.004 1062.54 107.181C1062.51 112.46 1058.46 116.028 1056.62 117.444H1056.62ZM1076.82 111.693C1076.34 111.28 1076.41 109.894 1078 105.588C1078.61 103.907 1080.02 101.076 1082.48 98.3623C1082.76 99.3894 1082.91 100.463 1082.93 101.548C1082.9 108.183 1079.1 110.661 1076.82 111.693H1076.82Z" fill="#4F4C4C" fill-opacity="0.15"/>
<path d="M1041.22 798.752C1041.07 799.07 1041.14 798.929 1041.22 798.752V798.752ZM1099.99 773.094C1095.25 773.092 1090.57 774.454 1086.31 777.075C1084.92 773.566 1083.48 770.498 1083.24 768.198C1082.96 765.514 1082.65 763.922 1082.98 760.736C1083.31 757.551 1084.8 753.039 1084.78 752.715C1084.75 752.39 1084.45 750.768 1081.4 750.739C1078.36 750.709 1075.74 751.476 1075.44 752.479C1074.9 754.311 1074.48 756.195 1074.19 758.112C1073.64 761.562 1068.1 773.89 1064.96 780.319C1063.92 777.812 1063.05 775.6 1062.86 773.831C1062.58 771.147 1062.27 769.555 1062.6 766.369C1062.93 763.184 1064.42 758.672 1064.4 758.348C1064.37 758.023 1064.07 756.401 1061.02 756.372C1057.98 756.342 1055.36 757.109 1055.06 758.112C1054.75 759.114 1054.42 761.474 1053.81 763.745C1053.19 766.016 1045.81 786.542 1043.88 791.88C1042.89 794.593 1042.04 796.776 1041.42 798.25C1041.33 798.486 1041.26 798.634 1041.21 798.752C1041.28 798.604 1041.33 798.457 1041.33 798.516C1040.81 799.784 1040.5 800.492 1040.5 800.492V800.521C1040.1 801.465 1039.65 802.32 1039.44 802.32C1039.3 802.32 1038.99 799.843 1039.51 796.451C1040.62 789.314 1043.24 778.225 1043.22 777.842C1043.19 777.635 1043.71 775.718 1041.49 774.686C1039.35 773.713 1038.57 775.335 1038.38 775.335C1038.19 775.335 1038.05 775.925 1038.05 775.925C1038.05 775.925 1040.43 763.42 1033.47 763.42C1029.13 763.42 1023.09 769.378 1020.12 774.775C1018.26 776.043 1014.23 778.786 1009.98 781.705C1008.35 782.826 1006.68 783.976 1005.1 785.067C1004.98 784.92 1004.88 784.773 1004.77 784.625C996.321 773.359 980.73 765.396 981.391 750.267C981.627 744.752 983.161 730.271 1011.37 712.694C1034.49 698.301 1052.98 702.253 1056.16 711.042C1060.74 723.576 1046.28 746.905 1022.27 750.267C1013.12 751.535 1008.3 747.111 1007.1 745.459C1005.85 743.719 1005.66 743.631 1005.19 743.955C1004.41 744.486 1004.91 746.02 1005.19 746.934C1005.9 749.264 1008.85 753.393 1013.87 755.457C1018.28 757.256 1029.01 758.259 1041.99 751.977C1056.56 744.958 1067.91 725.405 1064.58 709.037C1061.19 692.403 1039.13 686.947 1018.27 696.207C1005.83 701.723 992.39 710.393 982.719 721.689C971.232 735.137 969.394 746.846 970.149 751.741C972.836 769.112 991.989 780.437 999.655 788.813C999.278 789.078 998.924 789.314 998.593 789.55C994.75 791.939 980.148 801.495 976.493 811.581C972.364 823.024 977.177 831.223 980.336 832.343C990.196 835.765 1000.29 829.601 1005.72 819.485C1011.14 809.369 1010.48 796.157 1007.98 790.14C1007.96 790.052 1007.91 789.993 1007.89 789.904C1008.88 789.167 1009.89 788.43 1010.91 787.692C1012.86 786.247 1014.77 784.92 1016.45 783.77C1015.51 786.955 1014.82 790.789 1014.47 796.333C1014.04 802.822 1016.19 811.227 1018.97 814.53C1020.2 815.975 1021.68 816.005 1022.6 816.005C1025.86 816.005 1027.32 812.643 1028.95 808.632C1030.95 803.736 1032.72 798.044 1032.72 798.044C1032.72 798.044 1030.51 813.439 1036.57 813.439C1038.79 813.439 1041 809.87 1042 808.042V808.071C1042 808.071 1042.04 807.953 1042.16 807.717C1042.4 807.275 1042.52 807.01 1042.52 807.01V806.921C1043.41 805.004 1045.37 800.61 1048.32 793.355C1052.14 783.976 1055.79 772.268 1055.79 772.268C1056.15 774.842 1056.64 777.383 1057.26 779.877C1057.92 782.679 1059.31 785.746 1060.42 788.724C1059.52 790.258 1058.98 791.143 1058.98 791.143C1058.98 791.165 1058.99 791.187 1059 791.202C1058.29 792.382 1057.49 793.65 1056.67 794.888C1053.65 799.371 1050.06 804.503 1049.59 805.977C1049.02 807.717 1049.16 809.015 1050.25 810.018C1051.05 810.785 1052.47 810.903 1053.95 810.755C1056.66 810.519 1058.58 809.693 1059.5 809.163C1061.19 808.402 1062.8 807.35 1064.26 806.036C1067.21 803.323 1069 799.43 1068.84 794.299C1068.74 791.467 1068.01 788.636 1067.11 785.982C1067.37 785.51 1067.66 785.008 1067.92 784.507C1072.59 775.984 1076.2 766.629 1076.2 766.629C1076.55 769.203 1077.04 771.745 1077.66 774.238C1078.22 776.627 1079.33 779.252 1080.35 781.817C1075.96 786.271 1073.25 791.432 1072.3 794.823C1070.56 801.105 1071.93 803.937 1074.5 804.585C1075.65 804.88 1077.3 804.202 1078.53 803.553C1080.35 802.795 1082.07 801.69 1083.63 800.28C1086.57 797.566 1089.43 793.762 1089.24 788.601C1089.17 786.271 1088.65 783.941 1087.96 781.699C1091.67 779.753 1096.48 778.691 1102.61 779.576C1115.75 781.493 1118.32 791.756 1117.83 796.033C1117.33 800.309 1114.57 802.698 1113.65 803.406C1112.73 804.114 1112.45 804.379 1112.52 804.91C1112.64 805.677 1113.06 805.647 1113.84 805.47C1114.92 805.234 1120.73 801.99 1120.99 794.057C1121.36 784.029 1113.65 772.999 1099.99 773.088L1099.99 773.094ZM998.735 815.769C994.396 821.697 988.309 823.938 985.692 822.051C982.885 820.01 983.993 811.286 989.347 804.969C992.603 801.135 996.8 797.596 999.584 795.413C1000.22 794.941 1001.14 794.234 1002.27 793.378C1002.46 793.231 1002.56 793.172 1002.56 793.172C1002.77 792.995 1003.01 792.847 1003.24 792.671C1005.2 801.636 1003.31 809.54 998.735 815.763V815.769ZM1030.44 788.813C1028.93 793.443 1025.74 805.24 1023.81 804.621C1022.16 804.09 1021.14 795.095 1023.48 786.247C1024.66 781.794 1027.16 776.485 1028.64 774.421C1031.03 771.088 1033.64 770.026 1034.26 771.354C1035.08 773.094 1031.38 785.923 1030.44 788.813ZM1056.62 804.444C1055.99 804.857 1055.4 805.122 1055.11 804.916C1054.9 804.768 1055.37 804.208 1055.37 804.208C1055.37 804.208 1058.65 799.814 1059.95 797.808C1060.71 796.628 1061.58 795.242 1062.52 793.709C1062.52 793.856 1062.54 794.004 1062.54 794.181C1062.51 799.46 1058.46 803.028 1056.62 804.444H1056.62ZM1076.82 798.693C1076.34 798.28 1076.41 796.894 1078 792.588C1078.61 790.907 1080.02 788.076 1082.48 785.362C1082.76 786.389 1082.91 787.464 1082.93 788.548C1082.9 795.183 1079.1 797.661 1076.82 798.693H1076.82Z" fill="#4F4C4C" fill-opacity="0.15"/>
<path d="M653.215 340.752C653.074 341.07 653.145 340.929 653.215 340.752V340.752ZM711.995 315.094C707.249 315.092 702.567 316.454 698.31 319.075C696.918 315.565 695.479 312.498 695.243 310.198C694.96 307.514 694.653 305.922 694.983 302.736C695.314 299.551 696.8 295.039 696.777 294.714C696.753 294.39 696.446 292.768 693.403 292.739C690.359 292.709 687.74 293.476 687.436 294.479C686.898 296.311 686.48 298.195 686.185 300.112C685.643 303.562 680.1 315.89 676.962 322.319C675.924 319.812 675.051 317.6 674.863 315.831C674.58 313.147 674.273 311.555 674.603 308.369C674.933 305.184 676.42 300.672 676.396 300.347C676.373 300.023 676.066 298.401 673.025 298.372C669.983 298.342 667.362 299.109 667.055 300.112C666.749 301.114 666.418 303.474 665.805 305.745C665.192 308.015 657.809 328.542 655.877 333.88C654.886 336.593 654.036 338.776 653.423 340.25C653.329 340.486 653.258 340.634 653.211 340.752C653.281 340.604 653.329 340.457 653.329 340.516C652.81 341.784 652.503 342.492 652.503 342.492V342.521C652.102 343.465 651.653 344.32 651.441 344.32C651.3 344.32 650.993 341.843 651.512 338.451C652.621 331.314 655.24 320.225 655.216 319.842C655.193 319.635 655.712 317.718 653.494 316.686C651.347 315.713 650.568 317.335 650.379 317.335C650.191 317.335 650.049 317.925 650.049 317.925C650.049 317.925 652.432 305.42 645.474 305.42C641.133 305.42 635.093 311.378 632.125 316.775C630.261 318.043 626.226 320.786 621.98 323.705C620.352 324.826 618.676 325.976 617.096 327.067C616.978 326.92 616.883 326.772 616.765 326.625C608.321 315.359 592.73 307.396 593.391 292.267C593.627 286.752 595.161 272.271 623.372 254.694C646.494 240.301 664.979 244.253 668.162 253.042C672.739 265.576 658.279 288.905 634.267 292.267C625.115 293.535 620.304 289.111 619.101 287.459C617.851 285.719 617.662 285.631 617.19 285.955C616.411 286.486 616.907 288.02 617.19 288.934C617.898 291.264 620.847 295.393 625.87 297.457C630.282 299.256 641.013 300.259 653.987 293.977C668.563 286.958 679.909 267.405 676.583 251.037C673.195 234.403 651.13 228.947 630.266 238.207C617.834 243.722 604.39 252.393 594.719 263.689C583.232 277.137 581.394 288.846 582.149 293.741C584.836 311.112 603.989 322.437 611.655 330.813C611.278 331.078 610.924 331.314 610.593 331.55C606.75 333.939 592.148 343.495 588.493 353.581C584.364 365.024 589.177 373.223 592.336 374.343C602.196 377.764 612.292 371.601 617.716 361.485C623.14 351.369 622.482 338.156 619.981 332.14C619.958 332.052 619.91 331.993 619.887 331.904C620.878 331.167 621.892 330.43 622.907 329.692C624.863 328.247 626.774 326.92 628.449 325.77C627.505 328.955 626.821 332.789 626.467 338.333C626.042 344.822 628.189 353.227 630.974 356.53C632.2 357.975 633.684 358.005 634.605 358.005C637.861 358.005 639.323 354.643 640.949 350.632C642.954 345.736 644.724 340.044 644.724 340.044C644.724 340.044 642.506 355.439 648.57 355.439C650.785 355.439 653.003 351.87 653.996 350.042V350.071C653.996 350.071 654.044 349.953 654.161 349.717C654.397 349.275 654.515 349.01 654.515 349.01V348.921C655.412 347.004 657.37 342.61 660.317 335.355C664.139 325.976 667.794 314.268 667.794 314.268C668.147 316.842 668.636 319.383 669.257 321.877C669.917 324.679 671.309 327.746 672.418 330.724C671.522 332.258 670.979 333.143 670.979 333.143C670.981 333.165 670.989 333.186 671.003 333.202C670.295 334.381 669.493 335.65 668.667 336.888C665.649 341.371 662.061 346.503 661.589 347.977C661.023 349.717 661.164 351.015 662.249 352.018C663.052 352.785 664.467 352.903 665.951 352.755C668.665 352.519 670.576 351.693 671.496 351.163C673.192 350.402 674.795 349.35 676.259 348.036C679.209 345.323 681.002 341.43 680.837 336.298C680.742 333.467 680.011 330.636 679.114 327.982C679.374 327.51 679.657 327.008 679.916 326.507C684.586 317.984 688.195 308.629 688.195 308.629C688.549 311.203 689.037 313.745 689.658 316.238C690.225 318.627 691.331 321.252 692.346 323.817C687.96 328.271 685.246 333.432 684.303 336.823C682.557 343.105 683.925 345.937 686.497 346.585C687.653 346.88 689.304 346.202 690.531 345.553C692.353 344.794 694.071 343.69 695.625 342.279C698.574 339.566 701.427 335.762 701.238 330.601C701.167 328.271 700.648 325.941 699.964 323.699C703.668 321.753 708.479 320.691 714.613 321.576C727.75 323.493 730.322 333.756 729.827 338.033C729.331 342.309 726.571 344.698 725.651 345.406C724.73 346.113 724.447 346.379 724.518 346.91C724.636 347.677 725.061 347.647 725.839 347.47C726.925 347.234 732.726 343.99 732.986 336.057C733.363 326.029 725.651 314.999 711.987 315.088L711.995 315.094ZM610.735 357.769C606.396 363.697 600.309 365.938 597.692 364.051C594.885 362.01 595.993 353.286 601.347 346.969C604.603 343.135 608.8 339.596 611.584 337.413C612.221 336.941 613.141 336.234 614.274 335.378C614.463 335.231 614.557 335.172 614.557 335.172C614.769 334.995 615.005 334.847 615.241 334.671C617.197 343.636 615.312 351.54 610.735 357.763V357.769ZM642.435 330.813C640.925 335.443 637.743 347.24 635.808 346.621C634.156 346.09 633.142 337.095 635.478 328.247C636.657 323.794 639.158 318.485 640.645 316.421C643.025 313.088 645.644 312.026 646.258 313.354C647.083 315.094 643.379 327.923 642.435 330.813ZM668.624 346.444C667.987 346.857 667.398 347.122 667.114 346.916C666.902 346.768 667.374 346.208 667.374 346.208C667.374 346.208 670.654 341.814 671.951 339.808C672.706 338.628 673.579 337.242 674.521 335.709C674.521 335.856 674.544 336.004 674.544 336.181C674.513 341.46 670.458 345.028 668.617 346.444H668.624ZM688.816 340.693C688.344 340.28 688.415 338.894 689.996 334.588C690.609 332.907 692.022 330.076 694.479 327.362C694.757 328.389 694.908 329.463 694.927 330.548C694.903 337.183 691.105 339.661 688.818 340.693H688.816Z" fill="#4F4C4C" fill-opacity="0.15"/>
<path d="M71.2154 569.752C71.0738 570.07 71.1446 569.929 71.2154 569.752V569.752ZM129.994 544.094C125.249 544.092 120.567 545.454 116.31 548.075C114.918 544.566 113.479 541.498 113.243 539.198C112.96 536.514 112.653 534.922 112.983 531.736C113.314 528.551 114.8 524.039 114.777 523.715C114.753 523.39 114.446 521.768 111.403 521.739C108.359 521.709 105.74 522.476 105.436 523.479C104.898 525.311 104.48 527.195 104.185 529.112C103.643 532.562 98.1004 544.89 94.9625 551.319C93.9244 548.812 93.0514 546.6 92.8626 544.831C92.5795 542.147 92.2728 540.555 92.6031 537.369C92.9334 534.184 94.4198 529.672 94.3962 529.348C94.3726 529.023 94.0659 527.401 91.0247 527.372C87.9835 527.342 85.3622 528.109 85.0555 529.112C84.7487 530.114 84.4184 532.474 83.805 534.745C83.1916 537.016 75.8091 557.542 73.8767 562.88C72.8858 565.593 72.0364 567.776 71.423 569.25C71.3286 569.486 71.2578 569.634 71.2107 569.752C71.2814 569.604 71.3286 569.457 71.3286 569.516C70.8096 570.784 70.5028 571.492 70.5028 571.492V571.521C70.1018 572.465 69.6535 573.32 69.4411 573.32C69.2996 573.32 68.9928 570.843 69.5119 567.451C70.6208 560.314 73.2397 549.225 73.2161 548.842C73.1925 548.635 73.7116 546.718 71.4938 545.686C69.3467 544.713 68.5682 546.335 68.3794 546.335C68.1907 546.335 68.0491 546.925 68.0491 546.925C68.0491 546.925 70.4321 534.42 63.4743 534.42C59.133 534.42 53.093 540.378 50.1249 545.775C48.261 547.043 44.2265 549.786 39.9796 552.705C38.3516 553.826 36.6765 554.976 35.0957 556.067C34.9777 555.92 34.8834 555.773 34.7654 555.625C26.3212 544.359 10.7304 536.396 11.3911 521.267C11.627 515.752 13.1606 501.271 41.3716 483.694C64.4935 469.301 82.9792 473.253 86.162 482.042C90.7392 494.576 76.2786 517.905 52.2672 521.267C43.1152 522.535 38.3045 518.111 37.1012 516.459C35.8507 514.719 35.6619 514.631 35.1901 514.955C34.4115 515.486 34.9069 517.02 35.1901 517.934C35.8979 520.264 38.8471 524.393 43.8702 526.457C48.2822 528.256 59.0127 529.259 71.9869 522.977C86.5631 515.958 97.9093 496.405 94.5826 480.037C91.1946 463.403 69.1297 457.947 48.2657 467.207C35.8342 472.723 22.3905 481.393 12.7194 492.689C1.23159 506.137 -0.606361 517.846 0.148639 522.741C2.83597 540.112 21.9894 551.437 29.655 559.813C29.2775 560.078 28.9236 560.314 28.5933 560.55C24.7498 562.939 10.1477 572.495 6.493 582.581C2.36409 594.024 7.17722 602.223 10.3364 603.343C20.1962 606.765 30.292 600.601 35.7162 590.485C41.1404 580.369 40.4822 567.157 37.9812 561.14C37.9576 561.052 37.9104 560.993 37.8868 560.904C38.8778 560.167 39.8923 559.43 40.9068 558.692C42.8628 557.247 44.7739 555.92 46.449 554.77C45.5053 557.955 44.821 561.789 44.4671 567.333C44.0424 573.822 46.1895 582.227 48.9735 585.53C50.2004 586.975 51.6845 587.005 52.6046 587.005C55.8606 587.005 57.3234 583.643 58.949 579.632C60.9545 574.736 62.724 569.044 62.724 569.044C62.724 569.044 60.5062 584.439 66.5698 584.439C68.7852 584.439 71.003 580.87 71.9963 579.042V579.071C71.9963 579.071 72.0435 578.953 72.1615 578.717C72.3974 578.275 72.5154 578.01 72.5154 578.01V577.921C73.412 576.004 75.3702 571.61 78.3171 564.355C82.1393 554.976 85.794 543.268 85.794 543.268C86.1471 545.842 86.6358 548.383 87.2568 550.877C87.9174 553.679 89.3094 556.746 90.4183 559.724C89.5218 561.258 88.9791 562.143 88.9791 562.143C88.9808 562.165 88.9892 562.187 89.0027 562.202C88.2949 563.382 87.4927 564.65 86.6669 565.888C83.6493 570.371 80.0607 575.503 79.5888 576.977C79.0225 578.717 79.1641 580.015 80.2494 581.018C81.0516 581.785 82.4672 581.903 83.9513 581.755C86.6646 581.519 88.5757 580.693 89.4958 580.163C91.1922 579.402 92.7954 578.35 94.2594 577.036C97.2086 574.323 99.0017 570.43 98.8366 565.299C98.7422 562.467 98.0108 559.636 97.1142 556.982C97.3738 556.51 97.6569 556.008 97.9164 555.507C102.586 546.984 106.195 537.629 106.195 537.629C106.549 540.203 107.037 542.745 107.658 545.238C108.225 547.627 109.331 550.252 110.346 552.817C105.96 557.271 103.246 562.432 102.302 565.823C100.557 572.105 101.925 574.937 104.497 575.585C105.653 575.88 107.304 575.202 108.531 574.553C110.353 573.795 112.071 572.69 113.625 571.28C116.574 568.566 119.427 564.762 119.238 559.601C119.167 557.271 118.648 554.941 117.964 552.699C121.668 550.753 126.479 549.691 132.613 550.576C145.75 552.493 148.322 562.756 147.827 567.033C147.331 571.309 144.571 573.698 143.651 574.406C142.73 575.114 142.447 575.379 142.518 575.91C142.636 576.677 143.061 576.647 143.839 576.47C144.925 576.234 150.726 572.99 150.986 565.057C151.363 555.029 143.651 543.999 129.987 544.088L129.994 544.094ZM28.7348 586.769C24.3959 592.697 18.3088 594.938 15.6922 593.051C12.8845 591.01 13.9935 582.286 19.3469 575.969C22.6028 572.135 26.8001 568.596 29.5842 566.413C30.2212 565.941 31.1414 565.234 32.2739 564.378C32.4626 564.231 32.557 564.172 32.557 564.172C32.7694 563.995 33.0053 563.847 33.2412 563.671C35.1972 572.636 33.312 580.54 28.7348 586.763V586.769ZM60.4354 559.813C58.9254 564.443 55.7426 576.24 53.8079 575.621C52.1563 575.09 51.1418 566.095 53.4776 557.247C54.6573 552.794 57.1582 547.485 58.6446 545.421C61.0252 542.088 63.6441 541.026 64.2576 542.354C65.0834 544.094 61.3791 556.923 60.4354 559.813ZM86.6245 575.444C85.9874 575.857 85.3976 576.122 85.1144 575.916C84.9021 575.768 85.374 575.208 85.374 575.208C85.374 575.208 88.6535 570.814 89.9512 568.808C90.7062 567.628 91.5791 566.242 92.5205 564.709C92.5205 564.856 92.5441 565.004 92.5441 565.181C92.5135 570.46 88.4577 574.028 86.6174 575.444H86.6245ZM106.816 569.693C106.344 569.28 106.415 567.894 107.996 563.588C108.609 561.907 110.022 559.076 112.478 556.362C112.757 557.389 112.908 558.464 112.927 559.548C112.903 566.183 109.105 568.661 106.818 569.693H106.816Z" fill="#4F4C4C" fill-opacity="0.15"/>
<path d="M298.649 332.838C304.117 332.366 308.357 327.553 308.08 321.802C307.791 316.052 303.079 311.433 297.334 311.433H296.951C291.018 311.628 286.393 316.618 286.582 322.563C286.771 325.577 288.004 328.031 289.69 329.818C283.096 342.64 273.2 352.065 258.206 359.986C248.121 365.259 237.469 367.247 227.1 365.831C218.431 364.611 211.648 360.735 207.496 354.519C201.279 345.088 200.713 334.914 205.891 324.734C209.673 317.379 215.322 312.006 219.097 309.363C218.154 306.916 217.021 302.77 216.455 299.662C188.545 319.65 191.383 346.981 199.864 359.898C206.181 369.323 219.097 375.35 233.235 375.35C237.004 375.35 240.967 375.074 244.83 374.13C269.343 369.417 287.909 354.714 298.561 333.033L298.649 332.838ZM332.297 309.269C317.694 292.112 296.196 282.687 271.683 282.687H268.474C266.883 279.201 263.208 277.031 259.056 277.031H258.773C252.84 277.031 248.215 282.127 248.41 288.06C248.599 293.71 253.406 298.429 259.157 298.429H259.622C263.869 298.24 267.543 295.597 269.047 291.829H272.539C287.066 291.829 300.82 296.069 313.359 304.362C322.967 310.678 329.856 318.971 333.719 328.874C337.104 336.978 336.921 344.899 333.436 351.505C328.063 361.867 319.009 367.341 307.042 367.341C299.499 367.341 292.15 364.982 288.375 363.289C286.116 365.164 282.341 368.279 279.604 370.166C287.897 373.929 296.29 376.099 304.394 376.099C322.778 376.099 336.437 365.737 341.628 355.739C347.278 344.427 346.812 325.388 332.385 309.08L332.297 309.269ZM234.833 336.223C235.015 341.879 239.822 346.591 245.579 346.591H245.957C251.99 346.403 256.608 341.413 256.325 335.468C256.325 329.811 251.424 325.105 245.673 325.105H245.29C244.912 325.105 244.352 325.105 243.874 325.288C236.053 312.088 232.75 297.944 233.984 282.687C234.732 271.186 238.507 261.188 245.29 252.896C250.946 245.824 261.598 242.332 268.858 242.15C289.218 241.766 297.706 267.134 298.36 277.219L307.785 280.044C305.614 249.127 286.393 232.907 268.009 232.907C250.757 232.907 234.833 245.446 228.415 263.831C219.651 288.343 225.402 311.905 236.148 330.761C235.21 331.988 234.644 334.153 234.833 336.223Z" fill="#4F4C4C" fill-opacity="0.15"/>
<path d="M104.649 790.838C110.117 790.366 114.357 785.553 114.08 779.802C113.791 774.051 109.079 769.433 103.334 769.433H102.951C97.0175 769.628 92.3931 774.618 92.5819 780.563C92.7706 783.577 94.0038 786.031 95.69 787.818C89.0963 800.64 79.1995 810.065 64.2065 817.986C54.1209 823.259 43.4691 825.247 33.1005 823.831C24.4305 822.611 17.6481 818.735 13.4956 812.519C7.27946 803.088 6.71321 792.914 11.8912 782.734C15.6725 775.379 21.3225 770.006 25.0975 767.363C24.1537 764.916 23.0212 760.77 22.455 757.662C-5.45487 777.65 -2.61733 804.981 5.86383 817.898C12.1807 827.323 25.0975 833.35 39.2348 833.35C43.0035 833.35 46.9673 833.074 50.8304 832.13C75.3427 827.417 93.9094 812.714 104.561 791.033L104.649 790.838ZM138.297 767.269C123.694 750.112 102.196 740.687 77.6832 740.687H74.4745C72.8827 737.201 69.2083 735.031 65.0558 735.031H64.7727C58.8397 735.031 54.2153 740.127 54.4103 746.06C54.5991 751.71 59.4059 756.429 65.1565 756.429H65.6221C69.869 756.24 73.5433 753.597 75.047 749.829H78.5389C93.0663 749.829 106.82 754.069 119.359 762.362C128.967 768.678 135.856 776.971 139.719 786.874C143.104 794.978 142.921 802.899 139.436 809.505C134.063 819.867 125.009 825.341 113.042 825.341C105.499 825.341 98.15 822.982 94.375 821.289C92.1163 823.164 88.3413 826.279 85.6044 828.166C93.8968 831.929 102.29 834.099 110.394 834.099C128.778 834.099 142.437 823.737 147.628 813.739C153.278 802.427 152.812 783.388 138.385 767.08L138.297 767.269ZM40.8329 794.223C41.0154 799.879 45.8222 804.591 51.5791 804.591H51.9566C57.9903 804.402 62.6084 799.413 62.3253 793.468C62.3253 787.811 57.424 783.105 51.6735 783.105H51.2897C50.9122 783.105 50.3522 783.105 49.874 783.288C42.0535 770.088 38.7504 755.944 39.9835 740.687C40.7322 729.186 44.5073 719.188 51.2897 710.896C56.9459 703.824 67.5977 700.332 74.8582 700.15C95.2181 699.766 103.706 725.134 104.36 735.219L113.785 738.044C111.614 707.127 92.3931 690.907 74.0089 690.907C56.7571 690.907 40.8329 703.446 34.4154 721.831C25.6511 746.343 31.4017 769.905 42.1479 788.761C41.2104 789.988 40.6442 792.153 40.8329 794.223Z" fill="#4F4C4C" fill-opacity="0.15"/>
<path d="M635.479 12.5833C625.055 12.5833 616.604 21.034 616.604 31.4583C616.604 41.8827 625.055 50.3333 635.479 50.3333H679.521C689.945 50.3333 698.396 41.8827 698.396 31.4583C698.396 21.034 689.945 12.5833 679.521 12.5833H635.479Z" fill="#4F4C4C" fill-opacity="0.15"/>
<path d="M679.521 56.625C669.096 56.625 660.646 65.0753 660.646 75.5C660.646 85.9247 669.096 94.375 679.521 94.375C689.946 94.375 698.396 85.9247 698.396 75.5C698.396 65.0753 689.946 56.625 679.521 56.625Z" fill="#4F4C4C" fill-opacity="0.15"/>
<path d="M616.604 75.5C616.604 65.0753 625.055 56.625 635.479 56.625H654.354V94.375H635.479C625.055 94.375 616.604 85.9247 616.604 75.5Z" fill="#4F4C4C" fill-opacity="0.15"/>
<path d="M635.479 100.667C625.055 100.667 616.604 109.117 616.604 119.542C616.604 129.966 625.055 138.417 635.479 138.417C645.904 138.417 654.354 129.966 654.354 119.542V100.667H635.479Z" fill="#4F4C4C" fill-opacity="0.15"/>
<path d="M910.821 9.4375H792.179C783.247 9.4375 776 15.7783 776 23.5938V127.406C776 135.222 783.247 141.562 792.179 141.562H910.821C919.753 141.562 927 135.222 927 127.406V23.5938C927 15.7783 919.753 9.4375 910.821 9.4375ZM858.174 112.483C858.174 125.342 849.545 131.211 836.973 131.211C825.614 131.211 819.042 126.079 815.671 119.856L827.232 113.751C829.457 117.202 831.479 120.122 836.366 120.122C841.018 120.122 843.984 118.529 843.984 112.306V70.1029H858.174V112.483ZM891.744 131.211C878.565 131.211 870.038 125.725 865.892 118.529L877.453 112.69C880.487 117.025 884.464 120.24 891.441 120.24C897.306 120.24 901.081 117.674 901.081 114.105C901.081 109.858 897.238 108.354 890.733 105.847L887.194 104.52C876.948 100.716 870.173 95.9086 870.173 85.7928C870.173 76.4732 878.296 69.3951 890.935 69.3951C899.968 69.3951 906.44 72.1379 911.091 79.334L900.036 85.5273C897.609 81.7229 894.98 80.2188 890.902 80.2188C886.756 80.2188 884.127 82.5191 884.127 85.5273C884.127 89.2434 886.756 90.7475 892.856 93.0773L896.396 94.4045C908.462 98.9168 915.237 103.547 915.237 113.928C915.237 125.076 905.193 131.211 891.744 131.211Z" fill="#4F4C4C" fill-opacity="0.15"/>
<path d="M910.821 467.438H792.179C783.247 467.438 776 473.778 776 481.594V585.406C776 593.222 783.247 599.562 792.179 599.562H910.821C919.753 599.562 927 593.222 927 585.406V481.594C927 473.778 919.753 467.438 910.821 467.438ZM858.174 570.483C858.174 583.342 849.545 589.211 836.973 589.211C825.614 589.211 819.042 584.079 815.671 577.856L827.232 571.751C829.457 575.202 831.479 578.122 836.366 578.122C841.018 578.122 843.984 576.529 843.984 570.306V528.103H858.174V570.483ZM891.744 589.211C878.565 589.211 870.038 583.725 865.892 576.529L877.453 570.69C880.487 575.025 884.464 578.24 891.441 578.24C897.306 578.24 901.081 575.674 901.081 572.105C901.081 567.858 897.238 566.354 890.733 563.847L887.194 562.52C876.948 558.716 870.173 553.909 870.173 543.793C870.173 534.473 878.296 527.395 890.935 527.395C899.968 527.395 906.44 530.138 911.091 537.334L900.036 543.527C897.609 539.723 894.98 538.219 890.902 538.219C886.756 538.219 884.127 540.519 884.127 543.527C884.127 547.243 886.756 548.747 892.856 551.077L896.396 552.404C908.462 556.917 915.237 561.547 915.237 571.928C915.237 583.076 905.193 589.211 891.744 589.211Z" fill="#4F4C4C" fill-opacity="0.15"/>
<path d="M522.821 696.438H404.179C395.247 696.438 388 702.778 388 710.594V814.406C388 822.222 395.247 828.562 404.179 828.562H522.821C531.753 828.562 539 822.222 539 814.406V710.594C539 702.778 531.753 696.438 522.821 696.438ZM470.174 799.483C470.174 812.342 461.545 818.211 448.973 818.211C437.614 818.211 431.042 813.079 427.671 806.856L439.232 800.751C441.457 804.202 443.479 807.122 448.366 807.122C453.018 807.122 455.984 805.529 455.984 799.306V757.103H470.174V799.483ZM503.744 818.211C490.565 818.211 482.038 812.725 477.892 805.529L489.453 799.69C492.487 804.025 496.464 807.24 503.441 807.24C509.306 807.24 513.081 804.674 513.081 801.105C513.081 796.858 509.238 795.354 502.733 792.847L499.194 791.52C488.948 787.716 482.173 782.909 482.173 772.793C482.173 763.473 490.296 756.395 502.935 756.395C511.968 756.395 518.44 759.138 523.091 766.334L512.036 772.527C509.609 768.723 506.98 767.219 502.902 767.219C498.756 767.219 496.127 769.519 496.127 772.527C496.127 776.243 498.756 777.747 504.856 780.077L508.396 781.404C520.462 785.917 527.237 790.547 527.237 800.928C527.237 812.076 517.193 818.211 503.744 818.211Z" fill="#4F4C4C" fill-opacity="0.15"/>
<path d="M510.084 251.65L501.628 346.78L463.5 357.35L425.373 346.78L416.917 251.65H510.084ZM437.906 312.05L439.529 330.396L463.5 337.154L487.396 330.547L492.681 271.091H434.244L435.301 282.756H479.884L478.826 294.723H436.358L437.377 306.387H477.845L476.486 321.487L463.5 325.036L450.476 321.525L449.608 312.05H437.906Z" fill="#4F4C4C" fill-opacity="0.15"/>
<path d="M1480.08 714.65L1471.63 809.78L1433.5 820.35L1395.37 809.78L1386.92 714.65H1480.08ZM1407.91 775.05L1409.53 793.397L1433.5 800.154L1457.4 793.548L1462.68 734.091H1404.24L1405.3 745.756H1449.88L1448.83 757.723H1406.36L1407.38 769.388H1447.84L1446.49 784.488L1433.5 788.036L1420.48 784.525L1419.61 775.05H1407.91Z" fill="#4F4C4C" fill-opacity="0.15"/>
<path d="M214.998 13.5664L224.908 124.893L269.345 137.434L314.092 124.893L324.002 13.5664H214.998ZM302.478 49.8742H250.302L251.461 63.8886H301.32L297.445 106.001L269.653 113.666V113.745H269.345L241.319 106.001L239.616 84.4792H253.164L254.17 95.3187L269.345 99.4223L284.594 95.3187L286.3 77.6689H238.92L235.282 36.3279H303.718L302.478 49.8742Z" fill="#4F4C4C" fill-opacity="0.15"/>
<path d="M214.998 471.566L224.908 582.893L269.345 595.434L314.092 582.893L324.002 471.566H214.998ZM302.478 507.874H250.302L251.461 521.889H301.32L297.445 564.001L269.653 571.666V571.745H269.345L241.319 564.001L239.616 542.479H253.164L254.17 553.319L269.345 557.422L284.594 553.319L286.3 535.669H238.92L235.282 494.328H303.718L302.478 507.874Z" fill="#4F4C4C" fill-opacity="0.15"/>
<g clip-path="url(#clip10_29_204)">
<path d="M527.996 74.3675C527.988 70.0366 526.547 65.83 523.898 62.4041C521.248 58.9783 517.539 56.5259 513.349 55.4296L532.148 0H438.988L457.838 55.6058C453.768 56.7919 450.193 59.265 447.648 62.6543C445.102 66.0436 443.724 70.1666 443.719 74.4053C443.719 80.9675 446.991 86.781 451.98 90.3609C449.973 93.1905 447.688 95.8124 445.16 98.1877C440.509 102.617 435.066 106.133 429.116 108.55C423.869 105.008 421.597 98.7603 423.649 93.1607C428.112 91.7742 431.932 88.8357 434.417 84.8769C436.902 80.9181 437.888 76.2005 437.196 71.5779C436.504 66.9553 434.18 62.7331 430.645 59.6753C427.11 56.6175 422.597 54.9262 417.923 54.9074C412.731 54.914 407.753 56.9797 404.081 60.6513C400.41 64.323 398.344 69.3009 398.337 74.4933C398.337 79.8287 400.52 84.7236 404.019 88.2217C403.717 88.832 403.408 89.4486 403.1 90.103C400.174 96.1367 396.852 102.957 395.581 110.607C393.046 125.909 397.198 138.19 407.215 145.142C412.636 148.966 419.11 151.013 425.744 151C437.239 151 448.91 145.231 460.191 139.631C468.238 135.655 476.543 131.502 484.715 129.489C487.736 128.746 490.881 128.312 494.203 127.828C500.935 126.865 507.888 125.865 514.135 122.228C517.703 120.184 520.781 117.384 523.152 114.024C525.524 110.665 527.132 106.827 527.864 102.781C528.958 96.5267 527.864 90.2351 525.07 84.7236C526.945 81.7036 527.996 78.174 527.996 74.3675ZM519.471 74.3675C519.471 80.439 514.532 85.3779 508.46 85.3779C506.174 85.3715 503.946 84.6548 502.085 83.3268C500.224 81.9987 498.821 80.1251 498.072 77.9652C497.322 75.8052 497.262 73.4656 497.9 71.2701C498.538 69.0746 499.843 67.1317 501.634 65.7102L501.678 65.6661C502.03 65.4019 502.42 65.1376 502.81 64.8797C502.81 64.8797 502.861 64.8797 502.861 64.8356C503.037 64.7475 503.207 64.6154 503.383 64.521C503.427 64.521 503.471 64.4833 503.515 64.4833C503.691 64.3952 503.911 64.3071 504.125 64.219C504.346 64.131 504.566 64.0492 504.742 63.9611C504.786 63.9611 504.824 63.917 504.868 63.917C505.044 63.873 505.22 63.7849 505.396 63.7409C505.44 63.7409 505.522 63.6968 505.572 63.6968C505.786 63.6528 505.962 63.6087 506.183 63.571H506.227L506.881 63.4326C506.925 63.4326 507.007 63.4326 507.057 63.3885C507.233 63.3885 507.403 63.3445 507.579 63.3445H507.8C508.02 63.3445 508.24 63.3005 508.498 63.3005H509.064C509.24 63.3005 509.379 63.3005 509.549 63.3445H509.637C509.983 63.3885 510.335 63.4326 510.688 63.5207C513.17 64.0525 515.395 65.4182 516.993 67.3905C518.591 69.3628 519.465 71.8291 519.471 74.3675ZM451.187 8.74542H519.955L504.169 55.3037C503.515 55.4296 502.861 55.6498 502.206 55.87L485.596 21.9894L468.936 55.6498C468.282 55.4359 467.577 55.3037 466.879 55.1716L451.187 8.74542ZM482.444 70.561C481.64 66.5254 479.573 62.8502 476.543 60.0665L485.59 41.7955L494.726 60.4629C492.02 63.1683 490.051 66.6287 489.264 70.561H482.444ZM460.543 63.6528C460.757 63.6087 460.933 63.5647 461.153 63.527H461.279C461.462 63.4766 461.631 63.4766 461.808 63.4326H461.984C462.16 63.4326 462.292 63.3885 462.462 63.3885H464.167C464.343 63.3885 464.475 63.4326 464.607 63.4326C464.695 63.4326 464.733 63.4326 464.828 63.4766C464.997 63.5207 465.13 63.5207 465.306 63.5647C465.35 63.5647 465.394 63.5647 465.482 63.6087L466.092 63.7346H466.136C466.312 63.7849 466.489 63.829 466.658 63.917C466.702 63.917 466.746 63.9611 466.835 63.9611C466.967 64.0051 467.143 64.0492 467.275 64.131C467.319 64.131 467.363 64.175 467.401 64.175C467.577 64.2631 467.753 64.3071 467.929 64.3952H467.973C468.175 64.4715 468.366 64.5752 468.54 64.7035H468.584C468.76 64.7916 468.936 64.9174 469.112 65.0055C469.156 65.0055 469.156 65.0495 469.194 65.0495C469.37 65.1376 469.509 65.2697 469.678 65.3578L469.722 65.4019C470.245 65.792 470.729 66.2324 471.207 66.6665L471.251 66.7105C473.2 68.7628 474.281 71.4874 474.271 74.3172C474.175 77.1745 472.972 79.8826 470.916 81.8698C468.861 83.857 466.114 84.9678 463.255 84.9678C460.396 84.9678 457.648 83.857 455.593 81.8698C453.537 79.8826 452.335 77.1745 452.238 74.3172C452.231 71.8671 453.045 69.4854 454.551 67.5523C456.056 65.6192 458.166 64.2463 460.543 63.6528ZM417.521 63.3445C423.598 63.3445 428.537 68.2897 428.537 74.3612C428.537 80.4327 423.598 85.3779 417.527 85.3779C411.455 85.3779 406.504 80.439 406.504 74.3675C406.504 68.296 411.449 63.3445 417.521 63.3445ZM519.213 101.252C518.715 104.049 517.607 106.702 515.967 109.021C514.327 111.341 512.196 113.27 509.725 114.672C504.956 117.428 499.098 118.302 492.932 119.177C489.466 119.621 486.022 120.232 482.614 121.008C473.523 123.241 464.784 127.614 456.302 131.81C445.456 137.184 435.225 142.255 425.744 142.255C420.882 142.285 416.136 140.769 412.191 137.926C402.572 131.282 403.05 118.824 404.188 112.004C405.239 105.618 408.165 99.6348 410.965 93.9031C411.141 93.5571 411.273 93.2488 411.449 92.8965C412.405 93.2488 413.412 93.513 414.463 93.6892C412.802 102.957 417.521 112.526 426.706 117.251L428.367 118.126L430.154 117.472C437.805 114.76 444.889 110.343 451.143 104.442C454.597 101.221 457.649 97.5964 460.235 93.6452C461.241 93.815 462.248 93.8591 463.255 93.8591C467.583 93.849 471.786 92.4076 475.209 89.7594C478.632 87.1112 481.083 83.405 482.18 79.2184H489.522C490.612 83.4114 493.063 87.124 496.49 89.7737C499.918 92.4235 504.128 93.8604 508.46 93.8591C512.084 93.8591 515.444 92.8524 518.338 91.1537C519.471 94.4253 519.823 97.8417 519.213 101.252Z" fill="#4F4C4C" fill-opacity="0.15"/>
</g>
<g clip-path="url(#clip11_29_204)">
<path d="M1498 316.367C1497.99 312.037 1496.55 307.83 1493.9 304.404C1491.25 300.978 1487.54 298.526 1483.35 297.43L1502.15 242H1408.99L1427.84 297.606C1423.77 298.792 1420.19 301.265 1417.65 304.654C1415.1 308.044 1413.72 312.167 1413.72 316.405C1413.72 322.967 1416.99 328.781 1421.98 332.361C1419.97 335.19 1417.69 337.812 1415.16 340.188C1410.51 344.617 1405.07 348.133 1399.12 350.55C1393.87 347.008 1391.6 340.76 1393.65 335.161C1398.11 333.774 1401.93 330.836 1404.42 326.877C1406.9 322.918 1407.89 318.201 1407.2 313.578C1406.5 308.955 1404.18 304.733 1400.65 301.675C1397.11 298.618 1392.6 296.926 1387.92 296.907C1382.73 296.914 1377.75 298.98 1374.08 302.651C1370.41 306.323 1368.34 311.301 1368.34 316.493C1368.34 321.829 1370.52 326.724 1374.02 330.222C1373.72 330.832 1373.41 331.449 1373.1 332.103C1370.17 338.137 1366.85 344.957 1365.58 352.607C1363.05 367.909 1367.2 380.19 1377.21 387.142C1382.64 390.966 1389.11 393.013 1395.74 393C1407.24 393 1418.91 387.231 1430.19 381.631C1438.24 377.655 1446.54 373.502 1454.72 371.489C1457.74 370.746 1460.88 370.312 1464.2 369.828C1470.94 368.865 1477.89 367.865 1484.14 364.228C1487.7 362.184 1490.78 359.384 1493.15 356.024C1495.52 352.665 1497.13 348.827 1497.86 344.781C1498.96 338.527 1497.86 332.235 1495.07 326.724C1496.95 323.704 1498 320.174 1498 316.367ZM1489.47 316.367C1489.47 322.439 1484.53 327.378 1478.46 327.378C1476.17 327.372 1473.95 326.655 1472.08 325.327C1470.22 323.999 1468.82 322.125 1468.07 319.965C1467.32 317.805 1467.26 315.466 1467.9 313.27C1468.54 311.075 1469.84 309.132 1471.63 307.71L1471.68 307.666C1472.03 307.402 1472.42 307.138 1472.81 306.88C1472.81 306.88 1472.86 306.88 1472.86 306.836C1473.04 306.748 1473.21 306.615 1473.38 306.521C1473.43 306.521 1473.47 306.483 1473.51 306.483C1473.69 306.395 1473.91 306.307 1474.13 306.219C1474.35 306.131 1474.57 306.049 1474.74 305.961C1474.79 305.961 1474.82 305.917 1474.87 305.917C1475.04 305.873 1475.22 305.785 1475.4 305.741C1475.44 305.741 1475.52 305.697 1475.57 305.697C1475.79 305.653 1475.96 305.609 1476.18 305.571H1476.23L1476.88 305.433C1476.93 305.433 1477.01 305.433 1477.06 305.389C1477.23 305.389 1477.4 305.344 1477.58 305.344H1477.8C1478.02 305.344 1478.24 305.3 1478.5 305.3H1479.06C1479.24 305.3 1479.38 305.3 1479.55 305.344H1479.64C1479.98 305.389 1480.34 305.433 1480.69 305.521C1483.17 306.052 1485.39 307.418 1486.99 309.39C1488.59 311.363 1489.47 313.829 1489.47 316.367ZM1421.19 250.745H1489.96L1474.17 297.304C1473.51 297.43 1472.86 297.65 1472.21 297.87L1455.6 263.989L1438.94 297.65C1438.28 297.436 1437.58 297.304 1436.88 297.172L1421.19 250.745ZM1452.44 312.561C1451.64 308.525 1449.57 304.85 1446.54 302.067L1455.59 283.796L1464.73 302.463C1462.02 305.168 1460.05 308.629 1459.26 312.561H1452.44ZM1430.54 305.653C1430.76 305.609 1430.93 305.565 1431.15 305.527H1431.28C1431.46 305.477 1431.63 305.477 1431.81 305.433H1431.98C1432.16 305.433 1432.29 305.389 1432.46 305.389H1434.17C1434.34 305.389 1434.48 305.433 1434.61 305.433C1434.7 305.433 1434.73 305.433 1434.83 305.477C1435 305.521 1435.13 305.521 1435.31 305.565C1435.35 305.565 1435.39 305.565 1435.48 305.609L1436.09 305.735H1436.14C1436.31 305.785 1436.49 305.829 1436.66 305.917C1436.7 305.917 1436.75 305.961 1436.83 305.961C1436.97 306.005 1437.14 306.049 1437.27 306.131C1437.32 306.131 1437.36 306.175 1437.4 306.175C1437.58 306.263 1437.75 306.307 1437.93 306.395H1437.97C1438.18 306.472 1438.37 306.575 1438.54 306.703H1438.58C1438.76 306.792 1438.94 306.917 1439.11 307.005C1439.16 307.005 1439.16 307.05 1439.19 307.05C1439.37 307.138 1439.51 307.27 1439.68 307.358L1439.72 307.402C1440.24 307.792 1440.73 308.232 1441.21 308.666L1441.25 308.711C1443.2 310.763 1444.28 313.487 1444.27 316.317C1444.17 319.175 1442.97 321.883 1440.92 323.87C1438.86 325.857 1436.11 326.968 1433.25 326.968C1430.4 326.968 1427.65 325.857 1425.59 323.87C1423.54 321.883 1422.33 319.175 1422.24 316.317C1422.23 313.867 1423.05 311.485 1424.55 309.552C1426.06 307.619 1428.17 306.246 1430.54 305.653ZM1387.52 305.344C1393.6 305.344 1398.54 310.29 1398.54 316.361C1398.54 322.433 1393.6 327.378 1387.53 327.378C1381.46 327.378 1376.5 322.439 1376.5 316.367C1376.5 310.296 1381.45 305.344 1387.52 305.344ZM1489.21 343.252C1488.72 346.049 1487.61 348.702 1485.97 351.021C1484.33 353.341 1482.2 355.27 1479.72 356.672C1474.96 359.428 1469.1 360.302 1462.93 361.177C1459.47 361.621 1456.02 362.232 1452.61 363.008C1443.52 365.241 1434.78 369.614 1426.3 373.81C1415.46 379.184 1405.23 384.255 1395.74 384.255C1390.88 384.285 1386.14 382.769 1382.19 379.926C1372.57 373.282 1373.05 360.824 1374.19 354.004C1375.24 347.618 1378.16 341.635 1380.96 335.903C1381.14 335.557 1381.27 335.249 1381.45 334.896C1382.41 335.249 1383.41 335.513 1384.46 335.689C1382.8 344.957 1387.52 354.526 1396.71 359.251L1398.37 360.126L1400.15 359.472C1407.8 356.76 1414.89 352.343 1421.14 346.442C1424.6 343.221 1427.65 339.596 1430.23 335.645C1431.24 335.815 1432.25 335.859 1433.25 335.859C1437.58 335.849 1441.79 334.408 1445.21 331.759C1448.63 329.111 1451.08 325.405 1452.18 321.218H1459.52C1460.61 325.411 1463.06 329.124 1466.49 331.774C1469.92 334.423 1474.13 335.86 1478.46 335.859C1482.08 335.859 1485.44 334.852 1488.34 333.154C1489.47 336.425 1489.82 339.842 1489.21 343.252Z" fill="#4F4C4C" fill-opacity="0.15"/>
</g>
<g clip-path="url(#clip12_29_204)">
<path d="M1304 532.367C1303.99 528.037 1302.55 523.83 1299.9 520.404C1297.25 516.978 1293.54 514.526 1289.35 513.43L1308.15 458H1214.99L1233.84 513.606C1229.77 514.792 1226.19 517.265 1223.65 520.654C1221.1 524.044 1219.72 528.167 1219.72 532.405C1219.72 538.967 1222.99 544.781 1227.98 548.361C1225.97 551.19 1223.69 553.812 1221.16 556.188C1216.51 560.617 1211.07 564.133 1205.12 566.55C1199.87 563.008 1197.6 556.76 1199.65 551.161C1204.11 549.774 1207.93 546.836 1210.42 542.877C1212.9 538.918 1213.89 534.201 1213.2 529.578C1212.5 524.955 1210.18 520.733 1206.65 517.675C1203.11 514.618 1198.6 512.926 1193.92 512.907C1188.73 512.914 1183.75 514.98 1180.08 518.651C1176.41 522.323 1174.34 527.301 1174.34 532.493C1174.34 537.829 1176.52 542.724 1180.02 546.222C1179.72 546.832 1179.41 547.449 1179.1 548.103C1176.17 554.137 1172.85 560.957 1171.58 568.607C1169.05 583.909 1173.2 596.19 1183.21 603.142C1188.64 606.966 1195.11 609.013 1201.74 609C1213.24 609 1224.91 603.231 1236.19 597.631C1244.24 593.655 1252.54 589.502 1260.72 587.489C1263.74 586.746 1266.88 586.312 1270.2 585.828C1276.94 584.865 1283.89 583.865 1290.14 580.228C1293.7 578.184 1296.78 575.384 1299.15 572.024C1301.52 568.665 1303.13 564.827 1303.86 560.781C1304.96 554.527 1303.86 548.235 1301.07 542.724C1302.95 539.704 1304 536.174 1304 532.367ZM1295.47 532.367C1295.47 538.439 1290.53 543.378 1284.46 543.378C1282.17 543.372 1279.95 542.655 1278.08 541.327C1276.22 539.999 1274.82 538.125 1274.07 535.965C1273.32 533.805 1273.26 531.466 1273.9 529.27C1274.54 527.075 1275.84 525.132 1277.63 523.71L1277.68 523.666C1278.03 523.402 1278.42 523.138 1278.81 522.88C1278.81 522.88 1278.86 522.88 1278.86 522.836C1279.04 522.748 1279.21 522.615 1279.38 522.521C1279.43 522.521 1279.47 522.483 1279.52 522.483C1279.69 522.395 1279.91 522.307 1280.13 522.219C1280.35 522.131 1280.57 522.049 1280.74 521.961C1280.79 521.961 1280.82 521.917 1280.87 521.917C1281.04 521.873 1281.22 521.785 1281.4 521.741C1281.44 521.741 1281.52 521.697 1281.57 521.697C1281.79 521.653 1281.96 521.609 1282.18 521.571H1282.23L1282.88 521.433C1282.93 521.433 1283.01 521.433 1283.06 521.389C1283.23 521.389 1283.4 521.344 1283.58 521.344H1283.8C1284.02 521.344 1284.24 521.3 1284.5 521.3H1285.06C1285.24 521.3 1285.38 521.3 1285.55 521.344H1285.64C1285.98 521.389 1286.34 521.433 1286.69 521.521C1289.17 522.052 1291.39 523.418 1292.99 525.39C1294.59 527.363 1295.47 529.829 1295.47 532.367ZM1227.19 466.745H1295.96L1280.17 513.304C1279.52 513.43 1278.86 513.65 1278.21 513.87L1261.6 479.989L1244.94 513.65C1244.28 513.436 1243.58 513.304 1242.88 513.172L1227.19 466.745ZM1258.44 528.561C1257.64 524.525 1255.57 520.85 1252.54 518.067L1261.59 499.796L1270.73 518.463C1268.02 521.168 1266.05 524.629 1265.26 528.561H1258.44ZM1236.54 521.653C1236.76 521.609 1236.93 521.565 1237.15 521.527H1237.28C1237.46 521.477 1237.63 521.477 1237.81 521.433H1237.98C1238.16 521.433 1238.29 521.389 1238.46 521.389H1240.17C1240.34 521.389 1240.48 521.433 1240.61 521.433C1240.7 521.433 1240.73 521.433 1240.83 521.477C1241 521.521 1241.13 521.521 1241.31 521.565C1241.35 521.565 1241.39 521.565 1241.48 521.609L1242.09 521.735H1242.14C1242.31 521.785 1242.49 521.829 1242.66 521.917C1242.7 521.917 1242.75 521.961 1242.83 521.961C1242.97 522.005 1243.14 522.049 1243.28 522.131C1243.32 522.131 1243.36 522.175 1243.4 522.175C1243.58 522.263 1243.75 522.307 1243.93 522.395H1243.97C1244.18 522.472 1244.37 522.575 1244.54 522.703H1244.58C1244.76 522.792 1244.94 522.917 1245.11 523.005C1245.16 523.005 1245.16 523.05 1245.19 523.05C1245.37 523.138 1245.51 523.27 1245.68 523.358L1245.72 523.402C1246.24 523.792 1246.73 524.232 1247.21 524.666L1247.25 524.711C1249.2 526.763 1250.28 529.487 1250.27 532.317C1250.17 535.175 1248.97 537.883 1246.92 539.87C1244.86 541.857 1242.11 542.968 1239.25 542.968C1236.4 542.968 1233.65 541.857 1231.59 539.87C1229.54 537.883 1228.33 535.175 1228.24 532.317C1228.23 529.867 1229.05 527.485 1230.55 525.552C1232.06 523.619 1234.17 522.246 1236.54 521.653ZM1193.52 521.344C1199.6 521.344 1204.54 526.29 1204.54 532.361C1204.54 538.433 1199.6 543.378 1193.53 543.378C1187.46 543.378 1182.5 538.439 1182.5 532.367C1182.5 526.296 1187.45 521.344 1193.52 521.344ZM1295.21 559.252C1294.72 562.049 1293.61 564.702 1291.97 567.021C1290.33 569.341 1288.2 571.27 1285.72 572.672C1280.96 575.428 1275.1 576.302 1268.93 577.177C1265.47 577.621 1262.02 578.232 1258.61 579.008C1249.52 581.241 1240.78 585.614 1232.3 589.81C1221.46 595.184 1211.23 600.255 1201.74 600.255C1196.88 600.285 1192.14 598.769 1188.19 595.926C1178.57 589.282 1179.05 576.824 1180.19 570.004C1181.24 563.618 1184.16 557.635 1186.96 551.903C1187.14 551.557 1187.27 551.249 1187.45 550.896C1188.41 551.249 1189.41 551.513 1190.46 551.689C1188.8 560.957 1193.52 570.526 1202.71 575.251L1204.37 576.126L1206.15 575.472C1213.8 572.76 1220.89 568.343 1227.14 562.442C1230.6 559.221 1233.65 555.596 1236.23 551.645C1237.24 551.815 1238.25 551.859 1239.25 551.859C1243.58 551.849 1247.79 550.408 1251.21 547.759C1254.63 545.111 1257.08 541.405 1258.18 537.218H1265.52C1266.61 541.411 1269.06 545.124 1272.49 547.774C1275.92 550.423 1280.13 551.86 1284.46 551.859C1288.08 551.859 1291.44 550.852 1294.34 549.154C1295.47 552.425 1295.82 555.842 1295.21 559.252Z" fill="#4F4C4C" fill-opacity="0.15"/>
</g>
<g clip-path="url(#clip13_29_204)">
<path d="M915.996 761.367C915.988 757.037 914.547 752.83 911.898 749.404C909.248 745.978 905.539 743.526 901.349 742.43L920.148 687H826.988L845.838 742.606C841.768 743.792 838.193 746.265 835.648 749.654C833.102 753.044 831.724 757.167 831.719 761.405C831.719 767.967 834.991 773.781 839.98 777.361C837.973 780.19 835.688 782.812 833.16 785.188C828.509 789.617 823.066 793.133 817.116 795.55C811.869 792.008 809.597 785.76 811.649 780.161C816.112 778.774 819.932 775.836 822.417 771.877C824.902 767.918 825.888 763.201 825.196 758.578C824.504 753.955 822.18 749.733 818.645 746.675C815.11 743.618 810.597 741.926 805.923 741.907C800.731 741.914 795.753 743.98 792.081 747.651C788.41 751.323 786.344 756.301 786.337 761.493C786.337 766.829 788.52 771.724 792.019 775.222C791.717 775.832 791.408 776.449 791.1 777.103C788.174 783.137 784.852 789.957 783.581 797.607C781.046 812.909 785.198 825.19 795.215 832.142C800.636 835.966 807.11 838.013 813.744 838C825.239 838 836.91 832.231 848.191 826.631C856.238 822.655 864.543 818.502 872.715 816.489C875.736 815.746 878.881 815.312 882.203 814.828C888.935 813.865 895.888 812.865 902.135 809.228C905.703 807.184 908.781 804.384 911.152 801.024C913.524 797.665 915.132 793.827 915.864 789.781C916.958 783.527 915.864 777.235 913.07 771.724C914.945 768.704 915.996 765.174 915.996 761.367ZM907.471 761.367C907.471 767.439 902.532 772.378 896.46 772.378C894.174 772.372 891.946 771.655 890.085 770.327C888.224 768.999 886.821 767.125 886.072 764.965C885.322 762.805 885.262 760.466 885.9 758.27C886.538 756.075 887.843 754.132 889.634 752.71L889.678 752.666C890.03 752.402 890.42 752.138 890.81 751.88C890.81 751.88 890.861 751.88 890.861 751.836C891.037 751.748 891.207 751.615 891.383 751.521C891.427 751.521 891.471 751.483 891.515 751.483C891.691 751.395 891.911 751.307 892.125 751.219C892.346 751.131 892.566 751.049 892.742 750.961C892.786 750.961 892.824 750.917 892.868 750.917C893.044 750.873 893.22 750.785 893.396 750.741C893.44 750.741 893.522 750.697 893.572 750.697C893.786 750.653 893.962 750.609 894.183 750.571H894.227L894.881 750.433C894.925 750.433 895.007 750.433 895.057 750.389C895.233 750.389 895.403 750.344 895.579 750.344H895.8C896.02 750.344 896.24 750.3 896.498 750.3H897.064C897.24 750.3 897.379 750.3 897.549 750.344H897.637C897.983 750.389 898.335 750.433 898.688 750.521C901.17 751.052 903.395 752.418 904.993 754.39C906.591 756.363 907.465 758.829 907.471 761.367ZM839.187 695.745H907.955L892.169 742.304C891.515 742.43 890.861 742.65 890.206 742.87L873.596 708.989L856.936 742.65C856.282 742.436 855.577 742.304 854.879 742.172L839.187 695.745ZM870.444 757.561C869.64 753.525 867.573 749.85 864.543 747.067L873.59 728.796L882.726 747.463C880.02 750.168 878.051 753.629 877.264 757.561H870.444ZM848.543 750.653C848.757 750.609 848.933 750.565 849.153 750.527H849.279C849.462 750.477 849.631 750.477 849.808 750.433H849.984C850.16 750.433 850.292 750.389 850.462 750.389H852.167C852.343 750.389 852.475 750.433 852.607 750.433C852.695 750.433 852.733 750.433 852.828 750.477C852.997 750.521 853.13 750.521 853.306 750.565C853.35 750.565 853.394 750.565 853.482 750.609L854.092 750.735H854.136C854.312 750.785 854.489 750.829 854.658 750.917C854.702 750.917 854.746 750.961 854.835 750.961C854.967 751.005 855.143 751.049 855.275 751.131C855.319 751.131 855.363 751.175 855.401 751.175C855.577 751.263 855.753 751.307 855.929 751.395H855.973C856.175 751.472 856.366 751.575 856.54 751.703H856.584C856.76 751.792 856.936 751.917 857.112 752.005C857.156 752.005 857.156 752.05 857.194 752.05C857.37 752.138 857.509 752.27 857.678 752.358L857.722 752.402C858.245 752.792 858.729 753.232 859.207 753.666L859.251 753.711C861.2 755.763 862.281 758.487 862.271 761.317C862.175 764.175 860.972 766.883 858.916 768.87C856.861 770.857 854.114 771.968 851.255 771.968C848.396 771.968 845.648 770.857 843.593 768.87C841.537 766.883 840.335 764.175 840.238 761.317C840.231 758.867 841.045 756.485 842.551 754.552C844.056 752.619 846.166 751.246 848.543 750.653ZM805.521 750.344C811.598 750.344 816.537 755.29 816.537 761.361C816.537 767.433 811.598 772.378 805.527 772.378C799.455 772.378 794.504 767.439 794.504 761.367C794.504 755.296 799.449 750.344 805.521 750.344ZM907.213 788.252C906.715 791.049 905.607 793.702 903.967 796.021C902.327 798.341 900.196 800.27 897.725 801.672C892.956 804.428 887.098 805.302 880.932 806.177C877.466 806.621 874.022 807.232 870.614 808.008C861.523 810.241 852.784 814.614 844.302 818.81C833.456 824.184 823.225 829.255 813.744 829.255C808.882 829.285 804.136 827.769 800.191 824.926C790.572 818.282 791.05 805.824 792.188 799.004C793.239 792.618 796.165 786.635 798.965 780.903C799.141 780.557 799.273 780.249 799.449 779.896C800.405 780.249 801.412 780.513 802.463 780.689C800.802 789.957 805.521 799.526 814.706 804.251L816.367 805.126L818.154 804.472C825.805 801.76 832.889 797.343 839.143 791.442C842.597 788.221 845.649 784.596 848.235 780.645C849.241 780.815 850.248 780.859 851.255 780.859C855.583 780.849 859.786 779.408 863.209 776.759C866.632 774.111 869.083 770.405 870.18 766.218H877.522C878.612 770.411 881.063 774.124 884.49 776.774C887.918 779.423 892.128 780.86 896.46 780.859C900.084 780.859 903.444 779.852 906.338 778.154C907.471 781.425 907.823 784.842 907.213 788.252Z" fill="#4F4C4C" fill-opacity="0.15"/>
</g>
<g clip-path="url(#clip14_29_204)">
<path d="M90.902 102.177C87.533 106.967 83.8617 111.538 79.9105 115.861C90.4301 126.072 100.22 130.854 105.643 127.715C111.079 124.581 111.828 113.716 108.248 99.5027C102.881 100.698 97.049 101.604 90.902 102.177ZM82.6599 102.724C77.8887 102.922 73.1113 102.922 68.3401 102.724C70.7121 105.82 73.1092 108.689 75.5 111.306C77.8908 108.689 80.2817 105.82 82.6599 102.724ZM114.37 53.0576C131.137 57.8645 142.085 65.8549 142.085 75.5C142.085 85.1451 131.137 93.1356 114.37 97.9424C118.585 114.867 117.145 128.344 108.796 133.163C100.44 137.989 88.0456 132.503 75.5 120.391C62.9544 132.503 50.5598 137.989 42.2045 133.163C33.8555 128.344 32.4084 114.867 36.6301 97.9424C19.8628 93.1356 8.9153 85.1451 8.9153 75.5C8.9153 65.8549 19.8628 57.8645 36.6301 53.0576C32.4147 36.133 33.8555 22.6563 42.2045 17.8369C50.5598 13.0112 62.9544 18.4975 75.5 30.609C88.0456 18.4975 100.44 13.0112 108.796 17.8369C117.145 22.6563 118.592 36.133 114.37 53.0576ZM108.248 51.4973C111.834 37.2781 111.079 26.4187 105.65 23.2855C100.22 20.1459 90.4301 24.9276 79.9168 35.139C83.6351 39.1845 87.3346 43.7837 90.902 48.8233C97.0553 49.3896 102.881 50.2956 108.248 51.4973ZM42.7519 99.5027C39.1656 113.722 39.9206 124.581 45.3503 127.715C50.78 130.854 60.5699 126.072 71.0833 115.861C67.1342 111.538 63.465 106.967 60.098 102.177C54.265 101.655 48.4712 100.762 42.7519 99.5027ZM68.3401 48.276C73.1113 48.0784 77.8887 48.0784 82.6599 48.276C80.3981 45.3155 78.0092 42.4543 75.5 39.7004C73.1092 42.3178 70.7183 45.1805 68.3401 48.276ZM60.098 48.8233C63.469 44.0325 67.1424 39.4617 71.0958 35.139C60.5699 24.9276 50.7738 20.1459 45.3566 23.2855C39.9206 26.4187 39.1719 37.2844 42.7519 51.4973C48.1187 50.3019 53.951 49.3959 60.098 48.8233ZM87.4164 96.1367C91.8951 89.5641 95.8762 82.666 99.3265 75.5C95.8762 68.334 91.8951 61.4359 87.4164 54.8633C79.4832 54.2694 71.5168 54.2694 63.5836 54.8633C59.1049 61.4359 55.1238 68.334 51.6735 75.5C55.1238 82.666 59.1049 89.5641 63.5836 96.1367C71.5168 96.7306 79.4832 96.7306 87.4164 96.1367ZM95.4949 95.3125C99.3643 94.8091 103.045 94.1611 106.505 93.3998C105.374 89.8498 104.089 86.3505 102.655 82.9116C100.44 87.1401 98.0514 91.2751 95.4949 95.3062V95.3125ZM55.5051 55.6813C51.6357 56.1846 47.9551 56.8326 44.4947 57.5939C45.5643 60.9663 46.8478 64.477 48.3452 68.0821C50.5599 63.8536 52.9486 59.7123 55.5051 55.6813ZM44.4947 93.3935C47.9551 94.1548 51.6357 94.7965 55.5051 95.3062C52.9486 91.2751 50.5599 87.1401 48.3452 82.9116C46.8478 86.5104 45.5643 90.0212 44.4947 93.3935ZM38.3414 91.8521C39.9835 86.6048 42.1164 81.1059 44.696 75.4937C42.1164 69.8815 39.9835 64.3826 38.3414 59.1354C24.2355 63.1432 15.207 69.2272 15.207 75.4937C15.207 81.7602 24.2355 87.8443 38.3414 91.8521ZM106.505 57.5939C103.045 56.8326 99.3643 56.1909 95.4949 55.6813C98.0514 59.7123 100.44 63.8474 102.655 68.0758C104.152 64.477 105.436 60.9663 106.505 57.5939ZM112.659 59.1354C111.016 64.3826 108.884 69.8815 106.304 75.4937C108.884 81.1059 111.016 86.6048 112.659 91.8521C126.765 87.8443 135.793 81.7602 135.793 75.4937C135.793 69.2272 126.765 63.1432 112.659 59.1354ZM75.5 87.3283C73.9467 87.3283 72.4086 87.0224 70.9735 86.428C69.5384 85.8335 68.2345 84.9623 67.1361 83.8639C66.0377 82.7655 65.1665 81.4616 64.5721 80.0265C63.9776 78.5914 63.6717 77.0533 63.6717 75.5C63.6717 73.9467 63.9776 72.4086 64.5721 70.9735C65.1665 69.5384 66.0377 68.2345 67.1361 67.1361C68.2345 66.0377 69.5384 65.1665 70.9735 64.572C72.4086 63.9776 73.9467 63.6717 75.5 63.6717C78.6371 63.6717 81.6457 64.9179 83.8639 67.1361C86.0821 69.3544 87.3283 72.3629 87.3283 75.5C87.3283 78.6371 86.0821 81.6457 83.8639 83.8639C81.6457 86.0821 78.6371 87.3283 75.5 87.3283Z" fill="#4F4C4C" fill-opacity="0.15"/>
</g>
<g clip-path="url(#clip15_29_204)">
<path d="M1060.9 344.177C1057.53 348.967 1053.86 353.538 1049.91 357.861C1060.43 368.072 1070.22 372.854 1075.64 369.715C1081.08 366.581 1081.83 355.716 1078.25 341.503C1072.88 342.698 1067.05 343.604 1060.9 344.177ZM1052.66 344.724C1047.89 344.922 1043.11 344.922 1038.34 344.724C1040.71 347.82 1043.11 350.689 1045.5 353.306C1047.89 350.689 1050.28 347.82 1052.66 344.724ZM1084.37 295.058C1101.14 299.864 1112.08 307.855 1112.08 317.5C1112.08 327.145 1101.14 335.136 1084.37 339.942C1088.59 356.867 1087.14 370.344 1078.8 375.163C1070.44 379.989 1058.05 374.503 1045.5 362.391C1032.95 374.503 1020.56 379.989 1012.2 375.163C1003.86 370.344 1002.41 356.867 1006.63 339.942C989.863 335.136 978.915 327.145 978.915 317.5C978.915 307.855 989.863 299.864 1006.63 295.058C1002.41 278.133 1003.86 264.656 1012.2 259.837C1020.56 255.011 1032.95 260.498 1045.5 272.609C1058.05 260.498 1070.44 255.011 1078.8 259.837C1087.14 264.656 1088.59 278.133 1084.37 295.058ZM1078.25 293.497C1081.83 279.278 1081.08 268.419 1075.65 265.285C1070.22 262.146 1060.43 266.928 1049.92 277.139C1053.64 281.185 1057.33 285.784 1060.9 290.823C1067.06 291.39 1072.88 292.296 1078.25 293.497ZM1012.75 341.503C1009.17 355.722 1009.92 366.581 1015.35 369.715C1020.78 372.854 1030.57 368.072 1041.08 357.861C1037.13 353.538 1033.46 348.967 1030.1 344.177C1024.26 343.655 1018.47 342.762 1012.75 341.503ZM1038.34 290.276C1043.11 290.078 1047.89 290.078 1052.66 290.276C1050.4 287.316 1048.01 284.454 1045.5 281.7C1043.11 284.318 1040.72 287.18 1038.34 290.276ZM1030.1 290.823C1033.47 286.033 1037.14 281.462 1041.1 277.139C1030.57 266.928 1020.77 262.146 1015.36 265.285C1009.92 268.419 1009.17 279.284 1012.75 293.497C1018.12 292.302 1023.95 291.396 1030.1 290.823ZM1057.42 338.137C1061.9 331.564 1065.88 324.666 1069.33 317.5C1065.88 310.334 1061.9 303.436 1057.42 296.863C1049.48 296.269 1041.52 296.269 1033.58 296.863C1029.1 303.436 1025.12 310.334 1021.67 317.5C1025.12 324.666 1029.1 331.564 1033.58 338.137C1041.52 338.731 1049.48 338.731 1057.42 338.137ZM1065.49 337.312C1069.36 336.809 1073.04 336.161 1076.51 335.4C1075.37 331.85 1074.09 328.35 1072.65 324.912C1070.44 329.14 1068.05 333.275 1065.49 337.306V337.312ZM1025.51 297.681C1021.64 298.185 1017.96 298.833 1014.49 299.594C1015.56 302.966 1016.85 306.477 1018.35 310.082C1020.56 305.854 1022.95 301.712 1025.51 297.681ZM1014.49 335.394C1017.96 336.155 1021.64 336.797 1025.51 337.306C1022.95 333.275 1020.56 329.14 1018.35 324.912C1016.85 328.51 1015.56 332.021 1014.49 335.394ZM1008.34 333.852C1009.98 328.605 1012.12 323.106 1014.7 317.494C1012.12 311.882 1009.98 306.383 1008.34 301.135C994.235 305.143 985.207 311.227 985.207 317.494C985.207 323.76 994.235 329.844 1008.34 333.852ZM1076.51 299.594C1073.04 298.833 1069.36 298.191 1065.49 297.681C1068.05 301.712 1070.44 305.847 1072.65 310.076C1074.15 306.477 1075.44 302.966 1076.51 299.594ZM1082.66 301.135C1081.02 306.383 1078.88 311.882 1076.3 317.494C1078.88 323.106 1081.02 328.605 1082.66 333.852C1096.76 329.844 1105.79 323.76 1105.79 317.494C1105.79 311.227 1096.76 305.143 1082.66 301.135ZM1045.5 329.328C1043.95 329.328 1042.41 329.022 1040.97 328.428C1039.54 327.834 1038.23 326.962 1037.14 325.864C1036.04 324.766 1035.17 323.462 1034.57 322.027C1033.98 320.591 1033.67 319.053 1033.67 317.5C1033.67 315.947 1033.98 314.409 1034.57 312.974C1035.17 311.538 1036.04 310.234 1037.14 309.136C1038.23 308.038 1039.54 307.166 1040.97 306.572C1042.41 305.978 1043.95 305.672 1045.5 305.672C1048.64 305.672 1051.65 306.918 1053.86 309.136C1056.08 311.354 1057.33 314.363 1057.33 317.5C1057.33 320.637 1056.08 323.646 1053.86 325.864C1051.65 328.082 1048.64 329.328 1045.5 329.328Z" fill="#4F4C4C" fill-opacity="0.15"/>
</g>
<g clip-path="url(#clip16_29_204)">
<path d="M478.902 560.177C475.533 564.967 471.862 569.538 467.91 573.861C478.43 584.072 488.22 588.854 493.643 585.715C499.079 582.581 499.828 571.716 496.248 557.503C490.881 558.698 485.049 559.604 478.902 560.177ZM470.66 560.724C465.889 560.922 461.111 560.922 456.34 560.724C458.712 563.82 461.109 566.689 463.5 569.306C465.891 566.689 468.282 563.82 470.66 560.724ZM502.37 511.058C519.137 515.864 530.085 523.855 530.085 533.5C530.085 543.145 519.137 551.136 502.37 555.942C506.585 572.867 505.145 586.344 496.796 591.163C488.44 595.989 476.046 590.503 463.5 578.391C450.954 590.503 438.56 595.989 430.205 591.163C421.855 586.344 420.408 572.867 424.63 555.942C407.863 551.136 396.915 543.145 396.915 533.5C396.915 523.855 407.863 515.864 424.63 511.058C420.415 494.133 421.855 480.656 430.205 475.837C438.56 471.011 450.954 476.498 463.5 488.609C476.046 476.498 488.44 471.011 496.796 475.837C505.145 480.656 506.592 494.133 502.37 511.058ZM496.248 509.497C499.834 495.278 499.079 484.419 493.65 481.285C488.22 478.146 478.43 482.928 467.917 493.139C471.635 497.185 475.335 501.784 478.902 506.823C485.055 507.39 490.881 508.296 496.248 509.497ZM430.752 557.503C427.166 571.722 427.921 582.581 433.35 585.715C438.78 588.854 448.57 584.072 459.083 573.861C455.134 569.538 451.465 564.967 448.098 560.177C442.265 559.655 436.471 558.762 430.752 557.503ZM456.34 506.276C461.111 506.078 465.889 506.078 470.66 506.276C468.398 503.316 466.009 500.454 463.5 497.7C461.109 500.318 458.718 503.18 456.34 506.276ZM448.098 506.823C451.469 502.033 455.142 497.462 459.096 493.139C448.57 482.928 438.774 478.146 433.357 481.285C427.921 484.419 427.172 495.284 430.752 509.497C436.119 508.302 441.951 507.396 448.098 506.823ZM475.416 554.137C479.895 547.564 483.876 540.666 487.327 533.5C483.876 526.334 479.895 519.436 475.416 512.863C467.483 512.269 459.517 512.269 451.584 512.863C447.105 519.436 443.124 526.334 439.673 533.5C443.124 540.666 447.105 547.564 451.584 554.137C459.517 554.731 467.483 554.731 475.416 554.137ZM483.495 553.312C487.364 552.809 491.045 552.161 494.505 551.4C493.374 547.85 492.089 544.35 490.655 540.912C488.44 545.14 486.051 549.275 483.495 553.306V553.312ZM443.505 513.681C439.636 514.185 435.955 514.833 432.495 515.594C433.564 518.966 434.848 522.477 436.345 526.082C438.56 521.854 440.949 517.712 443.505 513.681ZM432.495 551.394C435.955 552.155 439.636 552.797 443.505 553.306C440.949 549.275 438.56 545.14 436.345 540.912C434.848 544.51 433.564 548.021 432.495 551.394ZM426.341 549.852C427.984 544.605 430.116 539.106 432.696 533.494C430.116 527.882 427.984 522.383 426.341 517.135C412.236 521.143 403.207 527.227 403.207 533.494C403.207 539.76 412.236 545.844 426.341 549.852ZM494.505 515.594C491.045 514.833 487.364 514.191 483.495 513.681C486.051 517.712 488.44 521.847 490.655 526.076C492.152 522.477 493.436 518.966 494.505 515.594ZM500.659 517.135C499.016 522.383 496.884 527.882 494.304 533.494C496.884 539.106 499.016 544.605 500.659 549.852C514.765 545.844 523.793 539.76 523.793 533.494C523.793 527.227 514.765 521.143 500.659 517.135ZM463.5 545.328C461.947 545.328 460.409 545.022 458.973 544.428C457.538 543.834 456.234 542.962 455.136 541.864C454.038 540.766 453.166 539.462 452.572 538.027C451.978 536.591 451.672 535.053 451.672 533.5C451.672 531.947 451.978 530.409 452.572 528.974C453.166 527.538 454.038 526.234 455.136 525.136C456.234 524.038 457.538 523.166 458.973 522.572C460.409 521.978 461.947 521.672 463.5 521.672C466.637 521.672 469.646 522.918 471.864 525.136C474.082 527.354 475.328 530.363 475.328 533.5C475.328 536.637 474.082 539.646 471.864 541.864C469.646 544.082 466.637 545.328 463.5 545.328Z" fill="#4F4C4C" fill-opacity="0.15"/>
</g>
<g clip-path="url(#clip17_29_204)">
<path d="M672.902 789.177C669.533 793.967 665.862 798.538 661.91 802.861C672.43 813.072 682.22 817.854 687.643 814.715C693.079 811.581 693.828 800.716 690.248 786.503C684.881 787.698 679.049 788.604 672.902 789.177ZM664.66 789.724C659.889 789.922 655.111 789.922 650.34 789.724C652.712 792.82 655.109 795.689 657.5 798.306C659.891 795.689 662.282 792.82 664.66 789.724ZM696.37 740.058C713.137 744.864 724.085 752.855 724.085 762.5C724.085 772.145 713.137 780.136 696.37 784.942C700.585 801.867 699.145 815.344 690.795 820.163C682.44 824.989 670.046 819.503 657.5 807.391C644.954 819.503 632.56 824.989 624.204 820.163C615.855 815.344 614.408 801.867 618.63 784.942C601.863 780.136 590.915 772.145 590.915 762.5C590.915 752.855 601.863 744.864 618.63 740.058C614.415 723.133 615.855 709.656 624.204 704.837C632.56 700.011 644.954 705.498 657.5 717.609C670.046 705.498 682.44 700.011 690.795 704.837C699.145 709.656 700.592 723.133 696.37 740.058ZM690.248 738.497C693.834 724.278 693.079 713.419 687.65 710.285C682.22 707.146 672.43 711.928 661.917 722.139C665.635 726.185 669.335 730.784 672.902 735.823C679.055 736.39 684.881 737.296 690.248 738.497ZM624.752 786.503C621.166 800.722 621.921 811.581 627.35 814.715C632.78 817.854 642.57 813.072 653.083 802.861C649.134 798.538 645.465 793.967 642.098 789.177C636.265 788.655 630.471 787.762 624.752 786.503ZM650.34 735.276C655.111 735.078 659.889 735.078 664.66 735.276C662.398 732.316 660.009 729.454 657.5 726.7C655.109 729.318 652.718 732.18 650.34 735.276ZM642.098 735.823C645.469 731.033 649.142 726.462 653.096 722.139C642.57 711.928 632.774 707.146 627.357 710.285C621.921 713.419 621.172 724.284 624.752 738.497C630.119 737.302 635.951 736.396 642.098 735.823ZM669.416 783.137C673.895 776.564 677.876 769.666 681.327 762.5C677.876 755.334 673.895 748.436 669.416 741.863C661.483 741.269 653.517 741.269 645.584 741.863C641.105 748.436 637.124 755.334 633.673 762.5C637.124 769.666 641.105 776.564 645.584 783.137C653.517 783.731 661.483 783.731 669.416 783.137ZM677.495 782.312C681.364 781.809 685.045 781.161 688.505 780.4C687.374 776.85 686.089 773.35 684.655 769.912C682.44 774.14 680.051 778.275 677.495 782.306V782.312ZM637.505 742.681C633.636 743.185 629.955 743.833 626.495 744.594C627.564 747.966 628.848 751.477 630.345 755.082C632.56 750.854 634.949 746.712 637.505 742.681ZM626.495 780.394C629.955 781.155 633.636 781.797 637.505 782.306C634.949 778.275 632.56 774.14 630.345 769.912C628.848 773.51 627.564 777.021 626.495 780.394ZM620.341 778.852C621.984 773.605 624.116 768.106 626.696 762.494C624.116 756.882 621.984 751.383 620.341 746.135C606.235 750.143 597.207 756.227 597.207 762.494C597.207 768.76 606.235 774.844 620.341 778.852ZM688.505 744.594C685.045 743.833 681.364 743.191 677.495 742.681C680.051 746.712 682.44 750.847 684.655 755.076C686.152 751.477 687.436 747.966 688.505 744.594ZM694.659 746.135C693.016 751.383 690.884 756.882 688.304 762.494C690.884 768.106 693.016 773.605 694.659 778.852C708.764 774.844 717.793 768.76 717.793 762.494C717.793 756.227 708.764 750.143 694.659 746.135ZM657.5 774.328C655.947 774.328 654.409 774.022 652.973 773.428C651.538 772.834 650.234 771.962 649.136 770.864C648.038 769.766 647.166 768.462 646.572 767.027C645.978 765.591 645.672 764.053 645.672 762.5C645.672 760.947 645.978 759.409 646.572 757.974C647.166 756.538 648.038 755.234 649.136 754.136C650.234 753.038 651.538 752.166 652.973 751.572C654.409 750.978 655.947 750.672 657.5 750.672C660.637 750.672 663.646 751.918 665.864 754.136C668.082 756.354 669.328 759.363 669.328 762.5C669.328 765.637 668.082 768.646 665.864 770.864C663.646 773.082 660.637 774.328 657.5 774.328Z" fill="#4F4C4C" fill-opacity="0.15"/>
</g>
<defs>
<clipPath id="clip0_29_204">
<rect width="151" height="151" fill="white" transform="translate(1164)"/>
</clipPath>
<clipPath id="clip1_29_204">
<rect width="151" height="151" fill="white" transform="translate(582 458)"/>
</clipPath>
<clipPath id="clip2_29_204">
<rect width="151" height="151" fill="white" transform="translate(1358)"/>
</clipPath>
<clipPath id="clip3_29_204">
<rect width="151" height="151" fill="white" transform="translate(1358 458)"/>
</clipPath>
<clipPath id="clip4_29_204">
<rect width="151" height="151" fill="white" transform="translate(1164 700)"/>
</clipPath>
<clipPath id="clip5_29_204">
<rect width="151" height="151" fill="white" transform="translate(1164 242)"/>
</clipPath>
<clipPath id="clip6_29_204">
<rect width="151" height="151" fill="white" transform="translate(0 229)"/>
</clipPath>
<clipPath id="clip7_29_204">
<rect width="151" height="151" fill="white" transform="translate(194 687)"/>
</clipPath>
<clipPath id="clip8_29_204">
<rect width="151" height="151" fill="white" transform="translate(970 484)"/>
</clipPath>
<clipPath id="clip9_29_204">
<rect width="151" height="151" fill="white" transform="translate(776 242)"/>
</clipPath>
<clipPath id="clip10_29_204">
<rect width="151" height="151" fill="white" transform="translate(388)"/>
</clipPath>
<clipPath id="clip11_29_204">
<rect width="151" height="151" fill="white" transform="translate(1358 242)"/>
</clipPath>
<clipPath id="clip12_29_204">
<rect width="151" height="151" fill="white" transform="translate(1164 458)"/>
</clipPath>
<clipPath id="clip13_29_204">
<rect width="151" height="151" fill="white" transform="translate(776 687)"/>
</clipPath>
<clipPath id="clip14_29_204">
<rect width="151" height="151" fill="white"/>
</clipPath>
<clipPath id="clip15_29_204">
<rect width="151" height="151" fill="white" transform="translate(970 242)"/>
</clipPath>
<clipPath id="clip16_29_204">
<rect width="151" height="151" fill="white" transform="translate(388 458)"/>
</clipPath>
<clipPath id="clip17_29_204">
<rect width="151" height="151" fill="white" transform="translate(582 687)"/>
</clipPath>
</defs>
</svg>
